<?xml version="1.0" encoding="UTF-8" standalone="no"?>
<!DOCTYPE svg PUBLIC "-//W3C//DTD SVG 1.1//EN"
 "http://www.w3.org/Graphics/SVG/1.1/DTD/svg11.dtd">
<!-- Generated by graphviz version 2.28.0 (20110509.1545)
 -->
<!-- Title: _anonymous_0 Pages: 1 -->
<svg width="2253pt" height="564pt"
 viewBox="0.00 0.00 2253.00 564.00" xmlns="http://www.w3.org/2000/svg" xmlns:xlink="http://www.w3.org/1999/xlink">
<g id="graph1" class="graph" transform="scale(1 1) rotate(0) translate(4 560)">
<title>_anonymous_0</title>
<polygon fill="white" stroke="white" points="-4,5 -4,-560 2250,-560 2250,5 -4,5"/>
<!-- org_liveSense_misc_i18n -->
<g id="node1" class="node"><title>org_liveSense_misc_i18n</title>
<polygon fill="yellow" stroke="black" points="934.533,-519 934.533,-555 1091.47,-555 1091.47,-519 934.533,-519"/>
<text text-anchor="middle" x="1013" y="-543" font-family="Arial" font-size="8.00">liveSense :: Misc :: i18n library</text>
<polyline fill="none" stroke="black" points="934.533,-537.801 1091.47,-537.801 "/>
<text text-anchor="middle" x="1013" y="-525.301" font-family="Arial" font-size="8.00">org.liveSense.misc.i18n(2&#45;SNAPSHOT)</text>
</g>
<!-- slf4j_api -->
<g id="node2" class="node"><title>slf4j_api</title>
<polygon fill="green" stroke="black" points="1547.88,-445 1547.88,-481 1614.12,-481 1614.12,-445 1547.88,-445"/>
<text text-anchor="middle" x="1581" y="-469" font-family="Arial" font-size="8.00">slf4j&#45;api</text>
<polyline fill="none" stroke="black" points="1547.88,-463.801 1614.12,-463.801 "/>
<text text-anchor="middle" x="1581" y="-451.301" font-family="Arial" font-size="8.00">slf4j.api(1.6.1)</text>
</g>
<!-- org_liveSense_misc_i18n&#45;&gt;slf4j_api -->
<g id="edge2" class="edge"><title>org_liveSense_misc_i18n&#45;&gt;slf4j_api</title>
<path fill="none" stroke="yellow" d="M1091.68,-526.027C1213.07,-510.639 1441.98,-481.622 1537.46,-469.519"/>
<polygon fill="yellow" stroke="yellow" points="1538.14,-472.961 1547.62,-468.231 1537.26,-466.017 1538.14,-472.961"/>
</g>
<!-- org_liveSense_core -->
<g id="node3" class="node"><title>org_liveSense_core</title>
<polygon fill="green" stroke="black" points="682.646,-445 682.646,-481 821.354,-481 821.354,-445 682.646,-445"/>
<text text-anchor="middle" x="752" y="-469" font-family="Arial" font-size="8.00">liveSense :: Core</text>
<polyline fill="none" stroke="black" points="682.646,-463.801 821.354,-463.801 "/>
<text text-anchor="middle" x="752" y="-451.301" font-family="Arial" font-size="8.00">org.liveSense.core(2&#45;SNAPSHOT)</text>
</g>
<!-- org_liveSense_misc_i18n&#45;&gt;org_liveSense_core -->
<g id="edge4" class="edge"><title>org_liveSense_misc_i18n&#45;&gt;org_liveSense_core</title>
<path fill="none" stroke="yellow" d="M951.147,-518.937C912.85,-508.372 863.526,-494.766 823.548,-483.737"/>
<polygon fill="yellow" stroke="yellow" points="824.432,-480.351 813.861,-481.065 822.57,-487.098 824.432,-480.351"/>
</g>
<!-- org_apache_felix_configadmin -->
<g id="node4" class="node"><title>org_apache_felix_configadmin</title>
<polygon fill="green" stroke="black" points="60.2949,-445 60.2949,-481 225.705,-481 225.705,-445 60.2949,-445"/>
<text text-anchor="middle" x="143" y="-469" font-family="Arial" font-size="8.00">Apache Felix Configuration Admin Service</text>
<polyline fill="none" stroke="black" points="60.2949,-463.801 225.705,-463.801 "/>
<text text-anchor="middle" x="143" y="-451.301" font-family="Arial" font-size="8.00">org.apache.felix.configadmin(1.2.8)</text>
</g>
<!-- org_liveSense_misc_i18n&#45;&gt;org_apache_felix_configadmin -->
<g id="edge6" class="edge"><title>org_liveSense_misc_i18n&#45;&gt;org_apache_felix_configadmin</title>
<path fill="none" stroke="yellow" d="M934.259,-529.483C773.496,-516.179 408.213,-485.949 236.056,-471.701"/>
<polygon fill="yellow" stroke="yellow" points="236.255,-468.206 226.001,-470.869 235.678,-475.182 236.255,-468.206"/>
</g>
<!-- org_liveSense_framework_gwt -->
<g id="node5" class="node"><title>org_liveSense_framework_gwt</title>
<polygon fill="green" stroke="black" points="1187.42,-445 1187.42,-481 1362.58,-481 1362.58,-445 1187.42,-445"/>
<text text-anchor="middle" x="1275" y="-469" font-family="Arial" font-size="8.00">liveSense :: Framework :: GWT framework</text>
<polyline fill="none" stroke="black" points="1187.42,-463.801 1362.58,-463.801 "/>
<text text-anchor="middle" x="1275" y="-451.301" font-family="Arial" font-size="8.00">org.liveSense.framework.gwt(2&#45;SNAPSHOT)</text>
</g>
<!-- org_liveSense_misc_i18n&#45;&gt;org_liveSense_framework_gwt -->
<g id="edge8" class="edge"><title>org_liveSense_misc_i18n&#45;&gt;org_liveSense_framework_gwt</title>
<path fill="none" stroke="yellow" d="M1075.09,-518.937C1113.53,-508.372 1163.05,-494.766 1203.18,-483.737"/>
<polygon fill="yellow" stroke="yellow" points="1204.19,-487.09 1212.9,-481.065 1202.33,-480.34 1204.19,-487.09"/>
</g>
<!-- ch_qos_logback_classic -->
<g id="node6" class="node"><title>ch_qos_logback_classic</title>
<polygon fill="#3182bd" stroke="black" points="1774.64,-371 1774.64,-407 1893.36,-407 1893.36,-371 1774.64,-371"/>
<text text-anchor="middle" x="1834" y="-395" font-family="Arial" font-size="8.00">Logback Classic Module</text>
<polyline fill="none" stroke="black" points="1774.64,-389.801 1893.36,-389.801 "/>
<text text-anchor="middle" x="1834" y="-377.301" font-family="Arial" font-size="8.00">ch.qos.logback.classic(1.0.3)</text>
</g>
<!-- slf4j_api&#45;&gt;ch_qos_logback_classic -->
<g id="edge10" class="edge"><title>slf4j_api&#45;&gt;ch_qos_logback_classic</title>
<path fill="none" stroke="green" d="M1614.15,-451.143C1652.23,-439.75 1715.53,-421.645 1764.49,-408.089"/>
<polygon fill="green" stroke="green" points="1765.69,-411.39 1774.4,-405.355 1763.83,-404.642 1765.69,-411.39"/>
</g>
<!-- org_liveSense_core&#45;&gt;slf4j_api -->
<g id="edge34" class="edge"><title>org_liveSense_core&#45;&gt;slf4j_api</title>
<path fill="none" stroke="green" d="M821.601,-473.745C934.945,-489.778 1166.41,-516.406 1362,-500 1423.54,-494.838 1493.8,-481.653 1537.78,-472.504"/>
<polygon fill="green" stroke="green" points="1538.76,-475.873 1547.83,-470.388 1537.32,-469.023 1538.76,-475.873"/>
</g>
<!-- org_apache_jackrabbit_jackrabbit_jcr_commons -->
<g id="node7" class="node"><title>org_apache_jackrabbit_jackrabbit_jcr_commons</title>
<polygon fill="#3182bd" stroke="black" points="428.74,-371 428.74,-407 629.26,-407 629.26,-371 428.74,-371"/>
<text text-anchor="middle" x="529" y="-395" font-family="Arial" font-size="8.00">Jackrabbit JCR Commons</text>
<polyline fill="none" stroke="black" points="428.74,-389.801 629.26,-389.801 "/>
<text text-anchor="middle" x="529" y="-377.301" font-family="Arial" font-size="8.00">org.apache.jackrabbit.jackrabbit&#45;jcr&#45;commons(2.4.0)</text>
</g>
<!-- org_liveSense_core&#45;&gt;org_apache_jackrabbit_jackrabbit_jcr_commons -->
<g id="edge14" class="edge"><title>org_liveSense_core&#45;&gt;org_apache_jackrabbit_jackrabbit_jcr_commons</title>
<path fill="none" stroke="green" d="M699.152,-444.937C666.915,-434.529 625.534,-421.168 591.653,-410.229"/>
<polygon fill="green" stroke="green" points="592.446,-406.807 581.855,-407.065 590.295,-413.468 592.446,-406.807"/>
</g>
<!-- org_apache_commons_beanutils -->
<g id="node8" class="node"><title>org_apache_commons_beanutils</title>
<polygon fill="#3182bd" stroke="black" points="1096.85,-371 1096.85,-407 1247.15,-407 1247.15,-371 1096.85,-371"/>
<text text-anchor="middle" x="1172" y="-395" font-family="Arial" font-size="8.00">Commons BeanUtils</text>
<polyline fill="none" stroke="black" points="1096.85,-389.801 1247.15,-389.801 "/>
<text text-anchor="middle" x="1172" y="-377.301" font-family="Arial" font-size="8.00">org.apache.commons.beanutils(1.8.3)</text>
</g>
<!-- org_liveSense_core&#45;&gt;org_apache_commons_beanutils -->
<g id="edge16" class="edge"><title>org_liveSense_core&#45;&gt;org_apache_commons_beanutils</title>
<path fill="none" stroke="green" d="M821.552,-451.436C888.623,-441.065 992.931,-424.449 1083,-408 1084.26,-407.769 1085.54,-407.534 1086.82,-407.297"/>
<polygon fill="green" stroke="green" points="1087.6,-410.713 1096.78,-405.422 1086.3,-403.834 1087.6,-410.713"/>
</g>
<!-- javax_jcr -->
<g id="node9" class="node"><title>javax_jcr</title>
<polygon fill="#3182bd" stroke="black" points="423.031,-223 423.031,-259 606.969,-259 606.969,-223 423.031,-223"/>
<text text-anchor="middle" x="515" y="-247" font-family="Arial" font-size="8.00">Content Repository for JavaTM Technology API</text>
<polyline fill="none" stroke="black" points="423.031,-241.801 606.969,-241.801 "/>
<text text-anchor="middle" x="515" y="-229.301" font-family="Arial" font-size="8.00">javax.jcr(2.0)</text>
</g>
<!-- org_liveSense_core&#45;&gt;javax_jcr -->
<g id="edge18" class="edge"><title>org_liveSense_core&#45;&gt;javax_jcr</title>
<path fill="none" stroke="green" d="M682.514,-460.867C595.276,-457.803 453.009,-446.812 420,-408 396.175,-379.986 443.997,-302.872 449,-296 457.402,-284.459 468.838,-273.951 479.83,-265.336"/>
<polygon fill="green" stroke="green" points="482.198,-267.934 488.092,-259.13 477.994,-262.337 482.198,-267.934"/>
</g>
<!-- org_apache_sling_jcr_api -->
<g id="node10" class="node"><title>org_apache_sling_jcr_api</title>
<polygon fill="#3182bd" stroke="black" points="650.293,-297 650.293,-333 795.707,-333 795.707,-297 650.293,-297"/>
<text text-anchor="middle" x="723" y="-321" font-family="Arial" font-size="8.00">Apache Sling Repository API Bundle</text>
<polyline fill="none" stroke="black" points="650.293,-315.801 795.707,-315.801 "/>
<text text-anchor="middle" x="723" y="-303.301" font-family="Arial" font-size="8.00">org.apache.sling.jcr.api(2.1.0)</text>
</g>
<!-- org_liveSense_core&#45;&gt;org_apache_sling_jcr_api -->
<g id="edge20" class="edge"><title>org_liveSense_core&#45;&gt;org_apache_sling_jcr_api</title>
<path fill="none" stroke="green" d="M714.006,-444.78C699.347,-436.016 684.167,-423.821 676,-408 668.253,-392.993 670.081,-385.818 676,-370 680.069,-359.127 687.426,-349 695.129,-340.521"/>
<polygon fill="green" stroke="green" points="697.76,-342.836 702.217,-333.224 692.739,-337.959 697.76,-342.836"/>
</g>
<!-- org_apache_sling_commons_osgi -->
<g id="node11" class="node"><title>org_apache_sling_commons_osgi</title>
<polygon fill="#3182bd" stroke="black" points="213.746,-223 213.746,-259 366.254,-259 366.254,-223 213.746,-223"/>
<text text-anchor="middle" x="290" y="-247" font-family="Arial" font-size="8.00">Apache Sling Commons OSGi support</text>
<polyline fill="none" stroke="black" points="213.746,-241.801 366.254,-241.801 "/>
<text text-anchor="middle" x="290" y="-229.301" font-family="Arial" font-size="8.00">org.apache.sling.commons.osgi(2.1.0)</text>
</g>
<!-- org_liveSense_core&#45;&gt;org_apache_sling_commons_osgi -->
<g id="edge22" class="edge"><title>org_liveSense_core&#45;&gt;org_apache_sling_commons_osgi</title>
<path fill="none" stroke="green" d="M682.572,-459.771C549.092,-454.768 267.214,-440.443 238,-408 201.799,-367.796 241.724,-302.574 268.962,-267.034"/>
<polygon fill="green" stroke="green" points="271.784,-269.108 275.223,-259.087 266.285,-264.776 271.784,-269.108"/>
</g>
<!-- net_entropysoft_transmorph -->
<g id="node12" class="node"><title>net_entropysoft_transmorph</title>
<polygon fill="#3182bd" stroke="black" points="684.637,-371 684.637,-407 819.363,-407 819.363,-371 684.637,-371"/>
<text text-anchor="middle" x="752" y="-395" font-family="Arial" font-size="8.00">Transmorph</text>
<polyline fill="none" stroke="black" points="684.637,-389.801 819.363,-389.801 "/>
<text text-anchor="middle" x="752" y="-377.301" font-family="Arial" font-size="8.00">net.entropysoft.transmorph(3.1.1)</text>
</g>
<!-- org_liveSense_core&#45;&gt;net_entropysoft_transmorph -->
<g id="edge26" class="edge"><title>org_liveSense_core&#45;&gt;net_entropysoft_transmorph</title>
<path fill="none" stroke="green" d="M752,-444.937C752,-436.807 752,-426.876 752,-417.705"/>
<polygon fill="green" stroke="green" points="755.5,-417.441 752,-407.441 748.5,-417.441 755.5,-417.441"/>
</g>
<!-- com_google_guava -->
<g id="node13" class="node"><title>com_google_guava</title>
<polygon fill="#3182bd" stroke="black" points="874.85,-371 874.85,-407 1041.15,-407 1041.15,-371 874.85,-371"/>
<text text-anchor="middle" x="958" y="-395" font-family="Arial" font-size="8.00">Guava: Google Core Libraries for Java 1.5</text>
<polyline fill="none" stroke="black" points="874.85,-389.801 1041.15,-389.801 "/>
<text text-anchor="middle" x="958" y="-377.301" font-family="Arial" font-size="8.00">com.google.guava(10.0.0)</text>
</g>
<!-- org_liveSense_core&#45;&gt;com_google_guava -->
<g id="edge28" class="edge"><title>org_liveSense_core&#45;&gt;com_google_guava</title>
<path fill="none" stroke="green" d="M800.819,-444.937C830.471,-434.573 868.497,-421.283 899.72,-410.37"/>
<polygon fill="green" stroke="green" points="900.89,-413.669 909.175,-407.065 898.58,-407.061 900.89,-413.669"/>
</g>
<!-- org_apache_commons_lang -->
<g id="node14" class="node"><title>org_apache_commons_lang</title>
<polygon fill="#3182bd" stroke="black" points="246.637,-371 246.637,-407 373.363,-407 373.363,-371 246.637,-371"/>
<text text-anchor="middle" x="310" y="-395" font-family="Arial" font-size="8.00">Commons Lang</text>
<polyline fill="none" stroke="black" points="246.637,-389.801 373.363,-389.801 "/>
<text text-anchor="middle" x="310" y="-377.301" font-family="Arial" font-size="8.00">org.apache.commons.lang(2.5)</text>
</g>
<!-- org_liveSense_core&#45;&gt;org_apache_commons_lang -->
<g id="edge32" class="edge"><title>org_liveSense_core&#45;&gt;org_apache_commons_lang</title>
<path fill="none" stroke="green" d="M682.419,-453.448C608.762,-443.989 489.255,-427.481 387,-408 385.921,-407.794 384.834,-407.584 383.742,-407.37"/>
<polygon fill="green" stroke="green" points="384.277,-403.907 373.779,-405.338 382.878,-410.766 384.277,-403.907"/>
</g>
<!-- org_apache_felix_http_jetty -->
<g id="node17" class="node"><title>org_apache_felix_http_jetty</title>
<polygon fill="#9ecae1" stroke="black" points="1113.97,-75 1113.97,-111 1242.03,-111 1242.03,-75 1113.97,-75"/>
<text text-anchor="middle" x="1178" y="-99" font-family="Arial" font-size="8.00">Apache Felix Http Jetty</text>
<polyline fill="none" stroke="black" points="1113.97,-93.8008 1242.03,-93.8008 "/>
<text text-anchor="middle" x="1178" y="-81.3008" font-family="Arial" font-size="8.00">org.apache.felix.http.jetty(2.2.0)</text>
</g>
<!-- org_liveSense_core&#45;&gt;org_apache_felix_http_jetty -->
<g id="edge24" class="edge"><title>org_liveSense_core&#45;&gt;org_apache_felix_http_jetty</title>
<path fill="none" stroke="green" d="M786.899,-444.85C801.739,-435.849 817.913,-423.451 828,-408 850.823,-373.038 847,-357.752 847,-316 847,-316 847,-316 847,-240 847,-128.536 1006.07,-101.45 1103.67,-95.3208"/>
<polygon fill="green" stroke="green" points="1104,-98.8075 1113.79,-94.746 1103.6,-91.8187 1104,-98.8075"/>
</g>
<!-- org_apache_felix_scr -->
<g id="node29" class="node"><title>org_apache_felix_scr</title>
<polygon fill="#bdbdbd" stroke="black" points="28.3086,-149 28.3086,-185 165.691,-185 165.691,-149 28.3086,-149"/>
<text text-anchor="middle" x="97" y="-173" font-family="Arial" font-size="8.00">Apache Felix Declarative Services</text>
<polyline fill="none" stroke="black" points="28.3086,-167.801 165.691,-167.801 "/>
<text text-anchor="middle" x="97" y="-155.301" font-family="Arial" font-size="8.00">org.apache.felix.scr(1.6.0)</text>
</g>
<!-- org_liveSense_core&#45;&gt;org_apache_felix_scr -->
<g id="edge12" class="edge"><title>org_liveSense_core&#45;&gt;org_apache_felix_scr</title>
<path fill="none" stroke="green" d="M682.537,-462.442C556.316,-462.041 295.395,-455.304 220,-408 143.17,-359.795 112.185,-247.115 101.656,-195.143"/>
<polygon fill="green" stroke="green" points="105.035,-194.179 99.7103,-185.019 98.1603,-195.5 105.035,-194.179"/>
</g>
<!-- org_apache_sling_api -->
<g id="node30" class="node"><title>org_apache_sling_api</title>
<polygon fill="#bdbdbd" stroke="black" points="1164.64,-149 1164.64,-185 1275.36,-185 1275.36,-149 1164.64,-149"/>
<text text-anchor="middle" x="1220" y="-173" font-family="Arial" font-size="8.00">Apache Sling API</text>
<polyline fill="none" stroke="black" points="1164.64,-167.801 1275.36,-167.801 "/>
<text text-anchor="middle" x="1220" y="-155.301" font-family="Arial" font-size="8.00">org.apache.sling.api(2.2.4)</text>
</g>
<!-- org_liveSense_core&#45;&gt;org_apache_sling_api -->
<g id="edge30" class="edge"><title>org_liveSense_core&#45;&gt;org_apache_sling_api</title>
<path fill="none" stroke="green" d="M821.642,-459.365C900.416,-454.75 1021.48,-442.152 1050,-408 1060.83,-395.037 1058.53,-384.579 1050,-370 1033.52,-341.829 1002.48,-362.171 986,-334 977.474,-319.421 977.388,-310.528 986,-296 1022.2,-234.939 1098.95,-201.108 1154.71,-183.791"/>
<polygon fill="green" stroke="green" points="1155.94,-187.076 1164.51,-180.848 1153.93,-180.371 1155.94,-187.076"/>
</g>
<!-- org_apache_sling_commons_logservice -->
<g id="node26" class="node"><title>org_apache_sling_commons_logservice</title>
<polygon fill="#bdbdbd" stroke="black" points="154.955,-1 154.955,-37 339.045,-37 339.045,-1 154.955,-1"/>
<text text-anchor="middle" x="247" y="-25" font-family="Arial" font-size="8.00">Apache Sling OSGi LogService Implementation</text>
<polyline fill="none" stroke="black" points="154.955,-19.8008 339.045,-19.8008 "/>
<text text-anchor="middle" x="247" y="-7.30078" font-family="Arial" font-size="8.00">org.apache.sling.commons.logservice(1.0.0)</text>
</g>
<!-- org_apache_felix_configadmin&#45;&gt;org_apache_sling_commons_logservice -->
<g id="edge104" class="edge"><title>org_apache_felix_configadmin&#45;&gt;org_apache_sling_commons_logservice</title>
<path fill="none" stroke="#bdbdbd" d="M106.915,-444.869C64.5525,-421.955 0,-377.026 0,-316 0,-316 0,-316 0,-166 0,-94.9016 76.7804,-57.6993 144.725,-38.6973"/>
<polygon fill="#bdbdbd" stroke="#bdbdbd" points="145.926,-41.9989 154.675,-36.024 144.109,-35.2386 145.926,-41.9989"/>
</g>
<!-- org_liveSense_misc_jsr303 -->
<g id="node15" class="node"><title>org_liveSense_misc_jsr303</title>
<polygon fill="#3182bd" stroke="black" points="1303.37,-371 1303.37,-407 1476.63,-407 1476.63,-371 1303.37,-371"/>
<text text-anchor="middle" x="1390" y="-395" font-family="Arial" font-size="8.00">liveSense :: Misc :: JSR 303 Bean Validation</text>
<polyline fill="none" stroke="black" points="1303.37,-389.801 1476.63,-389.801 "/>
<text text-anchor="middle" x="1390" y="-377.301" font-family="Arial" font-size="8.00">org.liveSense.misc.jsr303(2&#45;SNAPSHOT)</text>
</g>
<!-- org_liveSense_framework_gwt&#45;&gt;org_liveSense_misc_jsr303 -->
<g id="edge38" class="edge"><title>org_liveSense_framework_gwt&#45;&gt;org_liveSense_misc_jsr303</title>
<path fill="none" stroke="green" d="M1302.25,-444.937C1317.61,-435.323 1336.99,-423.19 1353.63,-412.774"/>
<polygon fill="green" stroke="green" points="1355.93,-415.463 1362.54,-407.19 1352.21,-409.53 1355.93,-415.463"/>
</g>
<!-- org_liveSense_framework_gwt&#45;&gt;org_apache_felix_http_jetty -->
<g id="edge36" class="edge"><title>org_liveSense_framework_gwt&#45;&gt;org_apache_felix_http_jetty</title>
<path fill="none" stroke="green" d="M1278.96,-444.775C1285.47,-411.666 1294.37,-338.653 1258,-296 1217.71,-248.752 1160.83,-309.242 1123,-260 1092.67,-220.527 1103.74,-193.901 1123,-148 1127.81,-136.528 1136.38,-126.267 1145.35,-117.85"/>
<polygon fill="green" stroke="green" points="1147.69,-120.453 1152.9,-111.227 1143.07,-115.191 1147.69,-120.453"/>
</g>
<!-- ch_qos_logback_classic&#45;&gt;slf4j_api -->
<g id="edge44" class="edge"><title>ch_qos_logback_classic&#45;&gt;slf4j_api</title>
<path fill="none" stroke="#3182bd" d="M1779.91,-407.055C1733.37,-420.713 1667.22,-439.457 1624.15,-451.143"/>
<polygon fill="#3182bd" stroke="#3182bd" points="1623,-447.827 1614.25,-453.811 1624.82,-454.586 1623,-447.827"/>
</g>
<!-- ch_qos_logback_core -->
<g id="node16" class="node"><title>ch_qos_logback_core</title>
<polygon fill="#9ecae1" stroke="black" points="2009.86,-297 2009.86,-333 2120.14,-333 2120.14,-297 2009.86,-297"/>
<text text-anchor="middle" x="2065" y="-321" font-family="Arial" font-size="8.00">Logback Core Module</text>
<polyline fill="none" stroke="black" points="2009.86,-315.801 2120.14,-315.801 "/>
<text text-anchor="middle" x="2065" y="-303.301" font-family="Arial" font-size="8.00">ch.qos.logback.core(1.0.3)</text>
</g>
<!-- ch_qos_logback_classic&#45;&gt;ch_qos_logback_core -->
<g id="edge40" class="edge"><title>ch_qos_logback_classic&#45;&gt;ch_qos_logback_core</title>
<path fill="none" stroke="#3182bd" d="M1888.74,-370.937C1922.28,-360.484 1965.37,-347.053 2000.55,-336.088"/>
<polygon fill="#3182bd" stroke="#3182bd" points="2001.74,-339.382 2010.25,-333.065 1999.66,-332.699 2001.74,-339.382"/>
</g>
<!-- ch_qos_logback_classic&#45;&gt;org_apache_felix_http_jetty -->
<g id="edge42" class="edge"><title>ch_qos_logback_classic&#45;&gt;org_apache_felix_http_jetty</title>
<path fill="none" stroke="#3182bd" d="M1893.44,-383.124C1968.44,-375.966 2092.11,-360.504 2129,-334 2196.95,-285.187 2220.2,-203.952 2158,-148 2124.47,-117.836 1475.83,-100.625 1252.67,-95.5779"/>
<polygon fill="#3182bd" stroke="#3182bd" points="1252.44,-92.0721 1242.37,-95.3468 1252.29,-99.0703 1252.44,-92.0721"/>
</g>
<!-- groovy_all -->
<g id="node18" class="node"><title>groovy_all</title>
<polygon fill="#9ecae1" stroke="black" points="1797.1,-297 1797.1,-333 1870.9,-333 1870.9,-297 1797.1,-297"/>
<text text-anchor="middle" x="1834" y="-321" font-family="Arial" font-size="8.00">Groovy Runtime</text>
<polyline fill="none" stroke="black" points="1797.1,-315.801 1870.9,-315.801 "/>
<text text-anchor="middle" x="1834" y="-303.301" font-family="Arial" font-size="8.00">groovy&#45;all(1.8.2)</text>
</g>
<!-- ch_qos_logback_classic&#45;&gt;groovy_all -->
<g id="edge46" class="edge"><title>ch_qos_logback_classic&#45;&gt;groovy_all</title>
<path fill="none" stroke="#3182bd" d="M1834,-370.937C1834,-362.807 1834,-352.876 1834,-343.705"/>
<polygon fill="#3182bd" stroke="#3182bd" points="1837.5,-343.441 1834,-333.441 1830.5,-343.441 1837.5,-343.441"/>
</g>
<!-- org_apache_jackrabbit_jackrabbit_jcr_commons&#45;&gt;javax_jcr -->
<g id="edge48" class="edge"><title>org_apache_jackrabbit_jackrabbit_jcr_commons&#45;&gt;javax_jcr</title>
<path fill="none" stroke="#3182bd" d="M494.565,-370.952C480.518,-362.037 465.773,-349.678 458,-334 450.498,-318.869 451.327,-311.515 458,-296 463.008,-284.358 471.895,-274.05 481.185,-265.643"/>
<polygon fill="#3182bd" stroke="#3182bd" points="483.623,-268.165 489.006,-259.04 479.107,-262.816 483.623,-268.165"/>
</g>
<!-- org_apache_jackrabbit_jackrabbit_api -->
<g id="node19" class="node"><title>org_apache_jackrabbit_jackrabbit_api</title>
<polygon fill="#9ecae1" stroke="black" points="467.293,-297 467.293,-333 632.707,-333 632.707,-297 467.293,-297"/>
<text text-anchor="middle" x="550" y="-321" font-family="Arial" font-size="8.00">Apache Jackrabbit API</text>
<polyline fill="none" stroke="black" points="467.293,-315.801 632.707,-315.801 "/>
<text text-anchor="middle" x="550" y="-303.301" font-family="Arial" font-size="8.00">org.apache.jackrabbit.jackrabbit&#45;api(2.4.0)</text>
</g>
<!-- org_apache_jackrabbit_jackrabbit_jcr_commons&#45;&gt;org_apache_jackrabbit_jackrabbit_api -->
<g id="edge50" class="edge"><title>org_apache_jackrabbit_jackrabbit_jcr_commons&#45;&gt;org_apache_jackrabbit_jackrabbit_api</title>
<path fill="none" stroke="#3182bd" d="M533.977,-370.937C536.399,-362.63 539.371,-352.444 542.094,-343.108"/>
<polygon fill="#3182bd" stroke="#3182bd" points="545.473,-344.021 544.913,-333.441 538.753,-342.061 545.473,-344.021"/>
</g>
<!-- org_apache_commons_collections -->
<g id="node20" class="node"><title>org_apache_commons_collections</title>
<polygon fill="#9ecae1" stroke="black" points="995.188,-297 995.188,-333 1150.81,-333 1150.81,-297 995.188,-297"/>
<text text-anchor="middle" x="1073" y="-321" font-family="Arial" font-size="8.00">Commons Collections</text>
<polyline fill="none" stroke="black" points="995.188,-315.801 1150.81,-315.801 "/>
<text text-anchor="middle" x="1073" y="-303.301" font-family="Arial" font-size="8.00">org.apache.commons.collections(3.2.1)</text>
</g>
<!-- org_apache_commons_beanutils&#45;&gt;org_apache_commons_collections -->
<g id="edge52" class="edge"><title>org_apache_commons_beanutils&#45;&gt;org_apache_commons_collections</title>
<path fill="none" stroke="#3182bd" d="M1148.54,-370.937C1135.56,-361.501 1119.25,-349.639 1105.11,-339.354"/>
<polygon fill="#3182bd" stroke="#3182bd" points="1106.78,-336.241 1096.64,-333.19 1102.67,-341.902 1106.78,-336.241"/>
</g>
<!-- jcl_over_slf4j -->
<g id="node21" class="node"><title>jcl_over_slf4j</title>
<polygon fill="#9ecae1" stroke="black" points="1168.77,-297 1168.77,-333 1249.23,-333 1249.23,-297 1168.77,-297"/>
<text text-anchor="middle" x="1209" y="-321" font-family="Arial" font-size="8.00">jcl&#45;over&#45;slf4j</text>
<polyline fill="none" stroke="black" points="1168.77,-315.801 1249.23,-315.801 "/>
<text text-anchor="middle" x="1209" y="-303.301" font-family="Arial" font-size="8.00">jcl.over.slf4j(1.6.1)</text>
</g>
<!-- org_apache_commons_beanutils&#45;&gt;jcl_over_slf4j -->
<g id="edge54" class="edge"><title>org_apache_commons_beanutils&#45;&gt;jcl_over_slf4j</title>
<path fill="none" stroke="#3182bd" d="M1180.77,-370.937C1185.13,-362.454 1190.5,-352.009 1195.38,-342.513"/>
<polygon fill="#3182bd" stroke="#3182bd" points="1198.58,-343.935 1200.04,-333.441 1192.35,-340.735 1198.58,-343.935"/>
</g>
<!-- org_apache_sling_jcr_api&#45;&gt;javax_jcr -->
<g id="edge56" class="edge"><title>org_apache_sling_jcr_api&#45;&gt;javax_jcr</title>
<path fill="none" stroke="#3182bd" d="M673.707,-296.937C643.767,-286.573 605.372,-273.283 573.846,-262.37"/>
<polygon fill="#3182bd" stroke="#3182bd" points="574.894,-259.029 564.299,-259.065 572.604,-265.644 574.894,-259.029"/>
</g>
<!-- org_apache_felix_eventadmin -->
<g id="node33" class="node"><title>org_apache_felix_eventadmin</title>
<polygon fill="#bdbdbd" stroke="black" points="222.184,-149 222.184,-185 365.816,-185 365.816,-149 222.184,-149"/>
<text text-anchor="middle" x="294" y="-173" font-family="Arial" font-size="8.00">Apache Felix EventAdmin</text>
<polyline fill="none" stroke="black" points="222.184,-167.801 365.816,-167.801 "/>
<text text-anchor="middle" x="294" y="-155.301" font-family="Arial" font-size="8.00">org.apache.felix.eventadmin(1.2.14)</text>
</g>
<!-- org_apache_sling_commons_osgi&#45;&gt;org_apache_felix_eventadmin -->
<g id="edge58" class="edge"><title>org_apache_sling_commons_osgi&#45;&gt;org_apache_felix_eventadmin</title>
<path fill="none" stroke="#3182bd" d="M290.948,-222.937C291.4,-214.807 291.951,-204.876 292.461,-195.705"/>
<polygon fill="#3182bd" stroke="#3182bd" points="295.971,-195.619 293.031,-185.441 288.982,-195.231 295.971,-195.619"/>
</g>
<!-- org_liveSense_misc_jsr303&#45;&gt;slf4j_api -->
<g id="edge62" class="edge"><title>org_liveSense_misc_jsr303&#45;&gt;slf4j_api</title>
<path fill="none" stroke="#3182bd" d="M1435.41,-407.117C1466.56,-418.859 1507.62,-434.34 1538.2,-445.865"/>
<polygon fill="#3182bd" stroke="#3182bd" points="1537.14,-449.206 1547.73,-449.459 1539.61,-442.656 1537.14,-449.206"/>
</g>
<!-- org_liveSense_misc_javax_persistence -->
<g id="node22" class="node"><title>org_liveSense_misc_javax_persistence</title>
<polygon fill="#9ecae1" stroke="black" points="1305.19,-297 1305.19,-333 1508.81,-333 1508.81,-297 1305.19,-297"/>
<text text-anchor="middle" x="1407" y="-321" font-family="Arial" font-size="8.00">liveSense :: Extension :: javax.persistence</text>
<polyline fill="none" stroke="black" points="1305.19,-315.801 1508.81,-315.801 "/>
<text text-anchor="middle" x="1407" y="-303.301" font-family="Arial" font-size="8.00">org.liveSense.misc.javax.persistence(2&#45;SNAPSHOT)</text>
</g>
<!-- org_liveSense_misc_jsr303&#45;&gt;org_liveSense_misc_javax_persistence -->
<g id="edge60" class="edge"><title>org_liveSense_misc_jsr303&#45;&gt;org_liveSense_misc_javax_persistence</title>
<path fill="none" stroke="#3182bd" d="M1394.03,-370.937C1395.97,-362.719 1398.34,-352.66 1400.53,-343.406"/>
<polygon fill="#3182bd" stroke="#3182bd" points="1403.99,-343.977 1402.88,-333.441 1397.18,-342.369 1403.99,-343.977"/>
</g>
<!-- ch_qos_logback_core&#45;&gt;org_apache_felix_http_jetty -->
<g id="edge66" class="edge"><title>ch_qos_logback_core&#45;&gt;org_apache_felix_http_jetty</title>
<path fill="none" stroke="#9ecae1" d="M2109.16,-296.836C2124.97,-288.292 2141.08,-276.242 2150,-260 2174.35,-215.684 2169.26,-179.864 2130,-148 2062.5,-93.2178 1464.79,-91.9803 1252.45,-93.3003"/>
<polygon fill="#9ecae1" stroke="#9ecae1" points="1252.31,-89.8011 1242.33,-93.367 1252.35,-96.8009 1252.31,-89.8011"/>
</g>
<!-- org_glassfish_javax_mail -->
<g id="node23" class="node"><title>org_glassfish_javax_mail</title>
<polygon fill="#deebf7" stroke="black" points="1988.75,-223 1988.75,-259 2141.25,-259 2141.25,-223 1988.75,-223"/>
<text text-anchor="middle" x="2065" y="-247" font-family="Arial" font-size="8.00">javax.mail API v.1.4</text>
<polyline fill="none" stroke="black" points="1988.75,-241.801 2141.25,-241.801 "/>
<text text-anchor="middle" x="2065" y="-229.301" font-family="Arial" font-size="8.00">org.glassfish.javax.mail(3.0.0.Preview)</text>
</g>
<!-- ch_qos_logback_core&#45;&gt;org_glassfish_javax_mail -->
<g id="edge64" class="edge"><title>ch_qos_logback_core&#45;&gt;org_glassfish_javax_mail</title>
<path fill="none" stroke="#9ecae1" d="M2065,-296.937C2065,-288.807 2065,-278.876 2065,-269.705"/>
<polygon fill="#9ecae1" stroke="#9ecae1" points="2068.5,-269.441 2065,-259.441 2061.5,-269.441 2068.5,-269.441"/>
</g>
<!-- org_apache_felix_http_jetty&#45;&gt;slf4j_api -->
<g id="edge80" class="edge"><title>org_apache_felix_http_jetty&#45;&gt;slf4j_api</title>
<path fill="none" stroke="#deebf7" d="M1166.33,-111.161C1154.5,-130.905 1140.04,-163.493 1156,-186 1213.48,-267.069 1271.67,-231.923 1367,-260 1432.77,-279.37 1465.42,-250.835 1517,-296 1558.24,-332.113 1573.06,-397.939 1578.27,-434.922"/>
<polygon fill="#deebf7" stroke="#deebf7" points="1574.82,-435.496 1579.55,-444.975 1581.76,-434.613 1574.82,-435.496"/>
</g>
<!-- org_apache_felix_http_jetty&#45;&gt;org_apache_felix_configadmin -->
<g id="edge82" class="edge"><title>org_apache_felix_http_jetty&#45;&gt;org_apache_felix_configadmin</title>
<path fill="none" stroke="#deebf7" d="M1113.88,-93.802C910.22,-93.6905 287.106,-97.5185 213,-148 119.621,-211.611 130.111,-370.766 138.621,-434.741"/>
<polygon fill="#deebf7" stroke="#deebf7" points="135.186,-435.443 140.058,-444.852 142.116,-434.459 135.186,-435.443"/>
</g>
<!-- org_apache_felix_http_jetty&#45;&gt;org_apache_sling_commons_logservice -->
<g id="edge78" class="edge"><title>org_apache_felix_http_jetty&#45;&gt;org_apache_sling_commons_logservice</title>
<path fill="none" stroke="#deebf7" d="M1113.64,-87.0227C954.628,-74.7252 542.148,-42.8256 349.253,-27.9078"/>
<polygon fill="#deebf7" stroke="#deebf7" points="349.352,-24.4052 339.112,-27.1236 348.813,-31.3843 349.352,-24.4052"/>
</g>
<!-- groovy_all&#45;&gt;org_apache_felix_http_jetty -->
<g id="edge70" class="edge"><title>groovy_all&#45;&gt;org_apache_felix_http_jetty</title>
<path fill="none" stroke="#9ecae1" d="M1871.03,-296.918C1890.92,-287.129 1915.49,-274.021 1936,-260 1957.33,-245.418 1957.19,-234.145 1980,-222 2033.67,-193.419 2075.09,-234.326 2112,-186 2122.25,-172.578 2123.59,-160.282 2112,-148 2082.62,-116.876 1468.34,-100.395 1252.33,-95.5451"/>
<polygon fill="#9ecae1" stroke="#9ecae1" points="1252.12,-92.0396 1242.04,-95.3162 1251.96,-99.0379 1252.12,-92.0396"/>
</g>
<!-- org_apache_servicemix_bundles_xstream -->
<g id="node24" class="node"><title>org_apache_servicemix_bundles_xstream</title>
<polygon fill="#deebf7" stroke="black" points="1740.63,-223 1740.63,-259 1927.37,-259 1927.37,-223 1740.63,-223"/>
<text text-anchor="middle" x="1834" y="-247" font-family="Arial" font-size="8.00">Apache ServiceMix :: Bundles :: xstream</text>
<polyline fill="none" stroke="black" points="1740.63,-241.801 1927.37,-241.801 "/>
<text text-anchor="middle" x="1834" y="-229.301" font-family="Arial" font-size="8.00">org.apache.servicemix.bundles.xstream(1.4.1.1)</text>
</g>
<!-- groovy_all&#45;&gt;org_apache_servicemix_bundles_xstream -->
<g id="edge68" class="edge"><title>groovy_all&#45;&gt;org_apache_servicemix_bundles_xstream</title>
<path fill="none" stroke="#9ecae1" d="M1834,-296.937C1834,-288.807 1834,-278.876 1834,-269.705"/>
<polygon fill="#9ecae1" stroke="#9ecae1" points="1837.5,-269.441 1834,-259.441 1830.5,-269.441 1837.5,-269.441"/>
</g>
<!-- org_apache_sling_scripting_jsp -->
<g id="node25" class="node"><title>org_apache_sling_scripting_jsp</title>
<polygon fill="#deebf7" stroke="black" points="1482.63,-223 1482.63,-259 1629.37,-259 1629.37,-223 1482.63,-223"/>
<text text-anchor="middle" x="1556" y="-247" font-family="Arial" font-size="8.00">Apache Sling Scripting JSP Support</text>
<polyline fill="none" stroke="black" points="1482.63,-241.801 1629.37,-241.801 "/>
<text text-anchor="middle" x="1556" y="-229.301" font-family="Arial" font-size="8.00">org.apache.sling.scripting.jsp(2.0.24)</text>
</g>
<!-- groovy_all&#45;&gt;org_apache_sling_scripting_jsp -->
<g id="edge72" class="edge"><title>groovy_all&#45;&gt;org_apache_sling_scripting_jsp</title>
<path fill="none" stroke="#9ecae1" d="M1797.08,-304.439C1755.09,-293.564 1685.4,-275.514 1631.72,-261.61"/>
<polygon fill="#9ecae1" stroke="#9ecae1" points="1632.45,-258.184 1621.89,-259.065 1630.69,-264.961 1632.45,-258.184"/>
</g>
<!-- org_apache_jackrabbit_jackrabbit_api&#45;&gt;javax_jcr -->
<g id="edge74" class="edge"><title>org_apache_jackrabbit_jackrabbit_api&#45;&gt;javax_jcr</title>
<path fill="none" stroke="#9ecae1" d="M541.705,-296.937C537.582,-288.454 532.504,-278.009 527.888,-268.513"/>
<polygon fill="#9ecae1" stroke="#9ecae1" points="530.998,-266.904 523.478,-259.441 524.702,-269.965 530.998,-266.904"/>
</g>
<!-- jcl_over_slf4j&#45;&gt;slf4j_api -->
<g id="edge76" class="edge"><title>jcl_over_slf4j&#45;&gt;slf4j_api</title>
<path fill="none" stroke="#9ecae1" d="M1249.26,-324.467C1263.96,-327.522 1280.72,-330.964 1296,-334 1379.87,-350.663 1409,-330.804 1485,-370 1493.5,-374.382 1531.19,-411.613 1556.74,-437.347"/>
<polygon fill="#9ecae1" stroke="#9ecae1" points="1554.39,-439.946 1563.91,-444.589 1559.36,-435.021 1554.39,-439.946"/>
</g>
<!-- org_apache_servicemix_bundles_xpp3 -->
<g id="node27" class="node"><title>org_apache_servicemix_bundles_xpp3</title>
<polygon fill="#bdbdbd" stroke="black" points="1914.73,-149 1914.73,-185 2103.27,-185 2103.27,-149 1914.73,-149"/>
<text text-anchor="middle" x="2009" y="-173" font-family="Arial" font-size="8.00">Apache ServiceMix :: Bundles :: xpp3</text>
<polyline fill="none" stroke="black" points="1914.73,-167.801 2103.27,-167.801 "/>
<text text-anchor="middle" x="2009" y="-155.301" font-family="Arial" font-size="8.00">org.apache.servicemix.bundles.xpp3(1.1.0.4c_5)</text>
</g>
<!-- org_apache_servicemix_bundles_xstream&#45;&gt;org_apache_servicemix_bundles_xpp3 -->
<g id="edge84" class="edge"><title>org_apache_servicemix_bundles_xstream&#45;&gt;org_apache_servicemix_bundles_xpp3</title>
<path fill="none" stroke="#deebf7" d="M1875.47,-222.937C1900.23,-212.752 1931.85,-199.74 1958.11,-188.936"/>
<polygon fill="#deebf7" stroke="#deebf7" points="1959.61,-192.107 1967.52,-185.065 1956.94,-185.633 1959.61,-192.107"/>
</g>
<!-- org_apache_servicemix_bundles_cglib -->
<g id="node28" class="node"><title>org_apache_servicemix_bundles_cglib</title>
<polygon fill="#bdbdbd" stroke="black" points="1713.18,-149 1713.18,-185 1896.82,-185 1896.82,-149 1713.18,-149"/>
<text text-anchor="middle" x="1805" y="-173" font-family="Arial" font-size="8.00">Apache ServiceMix Bundles: cglib&#45;2.1_3</text>
<polyline fill="none" stroke="black" points="1713.18,-167.801 1896.82,-167.801 "/>
<text text-anchor="middle" x="1805" y="-155.301" font-family="Arial" font-size="8.00">org.apache.servicemix.bundles.cglib(2.1.0.3_4)</text>
</g>
<!-- org_apache_servicemix_bundles_xstream&#45;&gt;org_apache_servicemix_bundles_cglib -->
<g id="edge86" class="edge"><title>org_apache_servicemix_bundles_xstream&#45;&gt;org_apache_servicemix_bundles_cglib</title>
<path fill="none" stroke="#deebf7" d="M1827.13,-222.937C1823.75,-214.542 1819.59,-204.227 1815.8,-194.81"/>
<polygon fill="#deebf7" stroke="#deebf7" points="1819.01,-193.409 1812.02,-185.441 1812.51,-196.024 1819.01,-193.409"/>
</g>
<!-- org_apache_sling_scripting_jsp&#45;&gt;slf4j_api -->
<g id="edge98" class="edge"><title>org_apache_sling_scripting_jsp&#45;&gt;slf4j_api</title>
<path fill="none" stroke="#deebf7" d="M1571.51,-259.096C1579.55,-269.086 1588.58,-282.38 1593,-296 1608.21,-342.87 1597.83,-400.963 1589.2,-434.525"/>
<polygon fill="#deebf7" stroke="#deebf7" points="1585.74,-433.947 1586.5,-444.514 1592.49,-435.776 1585.74,-433.947"/>
</g>
<!-- org_apache_sling_scripting_jsp&#45;&gt;org_apache_felix_http_jetty -->
<g id="edge94" class="edge"><title>org_apache_sling_scripting_jsp&#45;&gt;org_apache_felix_http_jetty</title>
<path fill="none" stroke="#deebf7" d="M1540.47,-222.835C1516.91,-196.886 1474.41,-150.415 1470,-148 1402.32,-110.941 1313.97,-98.7572 1252.25,-95.0291"/>
<polygon fill="#deebf7" stroke="#deebf7" points="1252.38,-91.5308 1242.2,-94.4823 1252,-98.5204 1252.38,-91.5308"/>
</g>
<!-- org_apache_sling_scripting_jsp&#45;&gt;org_apache_felix_scr -->
<g id="edge88" class="edge"><title>org_apache_sling_scripting_jsp&#45;&gt;org_apache_felix_scr</title>
<path fill="none" stroke="#deebf7" d="M1482.28,-239.975C1279.34,-239.273 695.499,-232.982 213,-186 201.036,-184.835 188.426,-183.251 176.105,-181.504"/>
<polygon fill="#deebf7" stroke="#deebf7" points="176.244,-177.987 165.843,-180.003 175.231,-184.913 176.244,-177.987"/>
</g>
<!-- org_apache_sling_scripting_jsp&#45;&gt;org_apache_sling_api -->
<g id="edge90" class="edge"><title>org_apache_sling_scripting_jsp&#45;&gt;org_apache_sling_api</title>
<path fill="none" stroke="#deebf7" d="M1482.44,-224.717C1477.89,-223.792 1473.39,-222.88 1469,-222 1389.92,-206.126 1367.17,-205.39 1285.18,-186.193"/>
<polygon fill="#deebf7" stroke="#deebf7" points="1285.97,-182.783 1275.43,-183.89 1284.36,-189.596 1285.97,-182.783"/>
</g>
<!-- org_apache_sling_commons_classloader -->
<g id="node31" class="node"><title>org_apache_sling_commons_classloader</title>
<polygon fill="#bdbdbd" stroke="black" points="1517.29,-149 1517.29,-185 1694.71,-185 1694.71,-149 1517.29,-149"/>
<text text-anchor="middle" x="1606" y="-173" font-family="Arial" font-size="8.00">Apache Sling Dynamic Class Loader Support</text>
<polyline fill="none" stroke="black" points="1517.29,-167.801 1694.71,-167.801 "/>
<text text-anchor="middle" x="1606" y="-155.301" font-family="Arial" font-size="8.00">org.apache.sling.commons.classloader(1.3.0)</text>
</g>
<!-- org_apache_sling_scripting_jsp&#45;&gt;org_apache_sling_commons_classloader -->
<g id="edge92" class="edge"><title>org_apache_sling_scripting_jsp&#45;&gt;org_apache_sling_commons_classloader</title>
<path fill="none" stroke="#deebf7" d="M1567.85,-222.937C1573.86,-214.277 1581.3,-203.573 1588,-193.921"/>
<polygon fill="#deebf7" stroke="#deebf7" points="1591.06,-195.651 1593.89,-185.441 1585.31,-191.658 1591.06,-195.651"/>
</g>
<!-- org_apache_sling_scripting_api -->
<g id="node32" class="node"><title>org_apache_sling_scripting_api</title>
<polygon fill="#bdbdbd" stroke="black" points="1292.96,-149 1292.96,-185 1461.04,-185 1461.04,-149 1292.96,-149"/>
<text text-anchor="middle" x="1377" y="-173" font-family="Arial" font-size="8.00">Apache Sling Scripting Implementation API</text>
<polyline fill="none" stroke="black" points="1292.96,-167.801 1461.04,-167.801 "/>
<text text-anchor="middle" x="1377" y="-155.301" font-family="Arial" font-size="8.00">org.apache.sling.scripting.api(2.1.4)</text>
</g>
<!-- org_apache_sling_scripting_jsp&#45;&gt;org_apache_sling_scripting_api -->
<g id="edge96" class="edge"><title>org_apache_sling_scripting_jsp&#45;&gt;org_apache_sling_scripting_api</title>
<path fill="none" stroke="#deebf7" d="M1513.58,-222.937C1488.26,-212.752 1455.91,-199.74 1429.05,-188.936"/>
<polygon fill="#deebf7" stroke="#deebf7" points="1430.01,-185.55 1419.43,-185.065 1427.4,-192.044 1430.01,-185.55"/>
</g>
<!-- org_apache_sling_scripting_jsp&#45;&gt;org_apache_felix_eventadmin -->
<g id="edge100" class="edge"><title>org_apache_sling_scripting_jsp&#45;&gt;org_apache_felix_eventadmin</title>
<path fill="none" stroke="#deebf7" d="M1482.23,-235.791C1261.45,-223.195 606.915,-185.853 375.877,-172.671"/>
<polygon fill="#deebf7" stroke="#deebf7" points="376.04,-169.175 365.857,-172.1 375.641,-176.164 376.04,-169.175"/>
</g>
<!-- org_apache_sling_commons_logservice&#45;&gt;slf4j_api -->
<g id="edge102" class="edge"><title>org_apache_sling_commons_logservice&#45;&gt;slf4j_api</title>
<path fill="none" stroke="#bdbdbd" d="M339.361,-21.8481C732.306,-30.307 2245,-69.1595 2245,-166 2245,-316 2245,-316 2245,-316 2245,-443.512 1772.01,-459.785 1624.43,-461.759"/>
<polygon fill="#bdbdbd" stroke="#bdbdbd" points="1624.34,-458.26 1614.38,-461.878 1624.42,-465.259 1624.34,-458.26"/>
</g>
<!-- org_apache_felix_scr&#45;&gt;org_apache_felix_configadmin -->
<g id="edge110" class="edge"><title>org_apache_felix_scr&#45;&gt;org_apache_felix_configadmin</title>
<path fill="none" stroke="#bdbdbd" d="M92.1091,-185.108C81.4534,-225.629 59.5159,-329.915 91,-408 95.5548,-419.297 103.729,-429.55 112.267,-438.014"/>
<polygon fill="#bdbdbd" stroke="#bdbdbd" points="110.067,-440.747 119.782,-444.972 114.822,-435.61 110.067,-440.747"/>
</g>
<!-- org_apache_felix_scr&#45;&gt;org_apache_sling_commons_logservice -->
<g id="edge108" class="edge"><title>org_apache_felix_scr&#45;&gt;org_apache_sling_commons_logservice</title>
<path fill="none" stroke="#bdbdbd" d="M98.4677,-148.666C101.034,-128.454 108.033,-95.127 127,-74 139.748,-59.7998 156.953,-49.1173 174.35,-41.1686"/>
<polygon fill="#bdbdbd" stroke="#bdbdbd" points="176.194,-44.1858 184.007,-37.029 173.436,-37.752 176.194,-44.1858"/>
</g>
<!-- org_apache_felix_metatype -->
<g id="node34" class="node"><title>org_apache_felix_metatype</title>
<polygon fill="#bdbdbd" stroke="black" points="135.635,-75 135.635,-111 266.365,-111 266.365,-75 135.635,-75"/>
<text text-anchor="middle" x="201" y="-99" font-family="Arial" font-size="8.00">Apache Felix Metatype Service</text>
<polyline fill="none" stroke="black" points="135.635,-93.8008 266.365,-93.8008 "/>
<text text-anchor="middle" x="201" y="-81.3008" font-family="Arial" font-size="8.00">org.apache.felix.metatype(1.0.4)</text>
</g>
<!-- org_apache_felix_scr&#45;&gt;org_apache_felix_metatype -->
<g id="edge106" class="edge"><title>org_apache_felix_scr&#45;&gt;org_apache_felix_metatype</title>
<path fill="none" stroke="#bdbdbd" d="M121.647,-148.937C135.405,-139.412 152.734,-127.415 167.686,-117.063"/>
<polygon fill="#bdbdbd" stroke="#bdbdbd" points="169.94,-119.76 176.17,-111.19 165.956,-114.004 169.94,-119.76"/>
</g>
<!-- org_apache_sling_api&#45;&gt;slf4j_api -->
<g id="edge114" class="edge"><title>org_apache_sling_api&#45;&gt;slf4j_api</title>
<path fill="none" stroke="#bdbdbd" d="M1268.16,-185.089C1358.12,-217.208 1543.52,-284.403 1553,-296 1585.44,-335.675 1586.58,-398.886 1584.07,-434.773"/>
<polygon fill="#bdbdbd" stroke="#bdbdbd" points="1580.57,-434.717 1583.21,-444.976 1587.54,-435.307 1580.57,-434.717"/>
</g>
<!-- org_apache_sling_api&#45;&gt;org_apache_felix_http_jetty -->
<g id="edge112" class="edge"><title>org_apache_sling_api&#45;&gt;org_apache_felix_http_jetty</title>
<path fill="none" stroke="#bdbdbd" d="M1210.05,-148.937C1205.05,-140.365 1198.88,-129.791 1193.29,-120.217"/>
<polygon fill="#bdbdbd" stroke="#bdbdbd" points="1196.24,-118.315 1188.17,-111.441 1190.19,-121.842 1196.24,-118.315"/>
</g>
<!-- org_apache_sling_commons_classloader&#45;&gt;slf4j_api -->
<g id="edge116" class="edge"><title>org_apache_sling_commons_classloader&#45;&gt;slf4j_api</title>
<path fill="none" stroke="#bdbdbd" d="M1619.57,-185.388C1626.56,-195.469 1634.37,-208.757 1638,-222 1642.46,-238.288 1639.47,-243.175 1638,-260 1632.2,-326.533 1634.74,-345.207 1612,-408 1608.54,-417.554 1603.44,-427.372 1598.37,-435.973"/>
<polygon fill="#bdbdbd" stroke="#bdbdbd" points="1595.23,-434.407 1592.97,-444.757 1601.19,-438.076 1595.23,-434.407"/>
</g>
<!-- org_apache_felix_eventadmin&#45;&gt;org_apache_felix_configadmin -->
<g id="edge122" class="edge"><title>org_apache_felix_eventadmin&#45;&gt;org_apache_felix_configadmin</title>
<path fill="none" stroke="#bdbdbd" d="M251.744,-185.087C234.956,-193.828 216.856,-206.042 205,-222 154.083,-290.53 178.38,-325.345 157,-408 154.724,-416.799 152.235,-426.404 149.996,-435.041"/>
<polygon fill="#bdbdbd" stroke="#bdbdbd" points="146.541,-434.418 147.419,-444.977 153.317,-436.176 146.541,-434.418"/>
</g>
<!-- org_apache_felix_eventadmin&#45;&gt;org_apache_sling_commons_logservice -->
<g id="edge120" class="edge"><title>org_apache_felix_eventadmin&#45;&gt;org_apache_sling_commons_logservice</title>
<path fill="none" stroke="#bdbdbd" d="M291.868,-148.661C289.227,-129.874 283.945,-99.2071 275,-74 271.68,-64.6449 267.023,-54.8793 262.459,-46.266"/>
<polygon fill="#bdbdbd" stroke="#bdbdbd" points="265.494,-44.5226 257.61,-37.4458 259.36,-47.895 265.494,-44.5226"/>
</g>
<!-- org_apache_felix_eventadmin&#45;&gt;org_apache_felix_metatype -->
<g id="edge118" class="edge"><title>org_apache_felix_eventadmin&#45;&gt;org_apache_felix_metatype</title>
<path fill="none" stroke="#bdbdbd" d="M271.96,-148.937C259.772,-139.501 244.45,-127.639 231.166,-117.354"/>
<polygon fill="#bdbdbd" stroke="#bdbdbd" points="233.254,-114.544 223.204,-111.19 228.968,-120.079 233.254,-114.544"/>
</g>
<!-- org_apache_felix_metatype&#45;&gt;org_apache_sling_commons_logservice -->
<g id="edge124" class="edge"><title>org_apache_felix_metatype&#45;&gt;org_apache_sling_commons_logservice</title>
<path fill="none" stroke="#bdbdbd" d="M211.901,-74.937C217.434,-66.277 224.273,-55.5731 230.44,-45.9207"/>
<polygon fill="#bdbdbd" stroke="#bdbdbd" points="233.423,-47.752 235.857,-37.4407 227.524,-43.9833 233.423,-47.752"/>
</g>
</g>
</svg>
