<?xml version="1.0" encoding="UTF-8" standalone="no"?>
<!DOCTYPE svg PUBLIC "-//W3C//DTD SVG 1.1//EN"
 "http://www.w3.org/Graphics/SVG/1.1/DTD/svg11.dtd">
<!-- Generated by graphviz version 2.34.0 (20130907.0228)
 -->
<!-- Title: %3 Pages: 1 -->
<svg width="1970pt" height="416pt"
 viewBox="0.00 0.00 1970.25 416.00" xmlns="http://www.w3.org/2000/svg" xmlns:xlink="http://www.w3.org/1999/xlink">
<g id="graph0" class="graph" transform="scale(1 1) rotate(0) translate(4 412)">
<title>%3</title>
<polygon fill="white" stroke="white" points="-4,4 -4,-412 1966.25,-412 1966.25,4 -4,4"/>
<!-- org_liveSense_misc_i18n -->
<g id="node1" class="node"><title>org_liveSense_misc_i18n</title>
<polygon fill="yellow" stroke="black" points="774.746,-371 774.746,-407 931.746,-407 931.746,-371 774.746,-371"/>
<text text-anchor="middle" x="853.246" y="-396.1" font-family="Arial" font-size="8.00">liveSense :: Misc :: i18n library</text>
<polyline fill="none" stroke="black" points="774.746,-389 931.746,-389 "/>
<text text-anchor="middle" x="853.246" y="-378.1" font-family="Arial" font-size="8.00">org.liveSense.misc.i18n(2&#45;SNAPSHOT)</text>
</g>
<!-- javax_jcr -->
<g id="node2" class="node"><title>javax_jcr</title>
<polygon fill="green" stroke="black" points="580.246,-297 580.246,-333 766.246,-333 766.246,-297 580.246,-297"/>
<text text-anchor="middle" x="673.246" y="-322.1" font-family="Arial" font-size="8.00">Content Repository for JavaTM Technology API</text>
<polyline fill="none" stroke="black" points="580.246,-315 766.246,-315 "/>
<text text-anchor="middle" x="673.246" y="-304.1" font-family="Arial" font-size="8.00">javax.jcr(2.0)</text>
</g>
<!-- org_liveSense_misc_i18n&#45;&gt;javax_jcr -->
<g id="edge1" class="edge"><title>org_liveSense_misc_i18n&#45;&gt;javax_jcr</title>
<path fill="none" stroke="yellow" d="M810.589,-370.937C785.015,-360.707 752.311,-347.626 725.232,-336.794"/>
<polygon fill="yellow" stroke="yellow" points="726.494,-333.529 715.909,-333.065 723.894,-340.029 726.494,-333.529"/>
</g>
<!-- org_apache_felix_configadmin -->
<g id="node3" class="node"><title>org_apache_felix_configadmin</title>
<polygon fill="green" stroke="black" points="940.246,-297 940.246,-333 1106.25,-333 1106.25,-297 940.246,-297"/>
<text text-anchor="middle" x="1023.25" y="-322.1" font-family="Arial" font-size="8.00">Apache Felix Configuration Admin Service</text>
<polyline fill="none" stroke="black" points="940.246,-315 1106.25,-315 "/>
<text text-anchor="middle" x="1023.25" y="-304.1" font-family="Arial" font-size="8.00">org.apache.felix.configadmin(1.6.0)</text>
</g>
<!-- org_liveSense_misc_i18n&#45;&gt;org_apache_felix_configadmin -->
<g id="edge2" class="edge"><title>org_liveSense_misc_i18n&#45;&gt;org_apache_felix_configadmin</title>
<path fill="none" stroke="yellow" d="M893.534,-370.937C917.476,-360.797 948.035,-347.854 973.478,-337.078"/>
<polygon fill="yellow" stroke="yellow" points="975.11,-340.188 982.954,-333.065 972.38,-333.742 975.11,-340.188"/>
</g>
<!-- org_apache_sling_jcr_api -->
<g id="node4" class="node"><title>org_apache_sling_jcr_api</title>
<polygon fill="green" stroke="black" points="77.2463,-297 77.2463,-333 223.246,-333 223.246,-297 77.2463,-297"/>
<text text-anchor="middle" x="150.246" y="-322.1" font-family="Arial" font-size="8.00">Apache Sling Repository API Bundle</text>
<polyline fill="none" stroke="black" points="77.2463,-315 223.246,-315 "/>
<text text-anchor="middle" x="150.246" y="-304.1" font-family="Arial" font-size="8.00">org.apache.sling.jcr.api(2.1.0)</text>
</g>
<!-- org_liveSense_misc_i18n&#45;&gt;org_apache_sling_jcr_api -->
<g id="edge3" class="edge"><title>org_liveSense_misc_i18n&#45;&gt;org_apache_sling_jcr_api</title>
<path fill="none" stroke="yellow" d="M774.434,-384.419C658.102,-378.407 433.497,-364.033 233.579,-334.096"/>
<polygon fill="yellow" stroke="yellow" points="233.887,-330.603 223.476,-332.567 232.839,-337.524 233.887,-330.603"/>
</g>
<!-- org_apache_sling_commons_osgi -->
<g id="node5" class="node"><title>org_apache_sling_commons_osgi</title>
<polygon fill="green" stroke="black" points="1124.75,-297 1124.75,-333 1277.75,-333 1277.75,-297 1124.75,-297"/>
<text text-anchor="middle" x="1201.25" y="-322.1" font-family="Arial" font-size="8.00">Apache Sling Commons OSGi support</text>
<polyline fill="none" stroke="black" points="1124.75,-315 1277.75,-315 "/>
<text text-anchor="middle" x="1201.25" y="-304.1" font-family="Arial" font-size="8.00">org.apache.sling.commons.osgi(2.2.0)</text>
</g>
<!-- org_liveSense_misc_i18n&#45;&gt;org_apache_sling_commons_osgi -->
<g id="edge4" class="edge"><title>org_liveSense_misc_i18n&#45;&gt;org_apache_sling_commons_osgi</title>
<path fill="none" stroke="yellow" d="M931.792,-371.877C981.402,-361.678 1047.13,-348.137 1114.42,-334.169"/>
<polygon fill="yellow" stroke="yellow" points="1115.28,-337.566 1124.35,-332.106 1113.85,-330.712 1115.28,-337.566"/>
</g>
<!-- org_apache_commons_lang -->
<g id="node6" class="node"><title>org_apache_commons_lang</title>
<polygon fill="green" stroke="black" points="1486.75,-297 1486.75,-333 1613.75,-333 1613.75,-297 1486.75,-297"/>
<text text-anchor="middle" x="1550.25" y="-322.1" font-family="Arial" font-size="8.00">Commons Lang</text>
<polyline fill="none" stroke="black" points="1486.75,-315 1613.75,-315 "/>
<text text-anchor="middle" x="1550.25" y="-304.1" font-family="Arial" font-size="8.00">org.apache.commons.lang(2.6)</text>
</g>
<!-- org_liveSense_misc_i18n&#45;&gt;org_apache_commons_lang -->
<g id="edge5" class="edge"><title>org_liveSense_misc_i18n&#45;&gt;org_apache_commons_lang</title>
<path fill="none" stroke="yellow" d="M932.049,-385.109C1048.98,-379.949 1275.36,-366.624 1476.79,-333.917"/>
<polygon fill="yellow" stroke="yellow" points="1477.37,-337.37 1486.67,-332.295 1476.23,-330.462 1477.37,-337.37"/>
</g>
<!-- org_apache_felix_scr -->
<g id="node7" class="node"><title>org_apache_felix_scr</title>
<polygon fill="green" stroke="black" points="784.246,-297 784.246,-333 922.246,-333 922.246,-297 784.246,-297"/>
<text text-anchor="middle" x="853.246" y="-322.1" font-family="Arial" font-size="8.00">Apache Felix Declarative Services</text>
<polyline fill="none" stroke="black" points="784.246,-315 922.246,-315 "/>
<text text-anchor="middle" x="853.246" y="-304.1" font-family="Arial" font-size="8.00">org.apache.felix.scr(1.6.2)</text>
</g>
<!-- org_liveSense_misc_i18n&#45;&gt;org_apache_felix_scr -->
<g id="edge6" class="edge"><title>org_liveSense_misc_i18n&#45;&gt;org_apache_felix_scr</title>
<path fill="none" stroke="yellow" d="M853.246,-370.937C853.246,-362.807 853.246,-352.876 853.246,-343.705"/>
<polygon fill="yellow" stroke="yellow" points="856.746,-343.441 853.246,-333.441 849.746,-343.441 856.746,-343.441"/>
</g>
<!-- org_apache_sling_i18n -->
<g id="node8" class="node"><title>org_apache_sling_i18n</title>
<polygon fill="green" stroke="black" points="241.746,-297 241.746,-333 404.746,-333 404.746,-297 241.746,-297"/>
<text text-anchor="middle" x="323.246" y="-322.1" font-family="Arial" font-size="8.00">Apache Sling Internationalization Support</text>
<polyline fill="none" stroke="black" points="241.746,-315 404.746,-315 "/>
<text text-anchor="middle" x="323.246" y="-304.1" font-family="Arial" font-size="8.00">org.apache.sling.i18n(2.2.6)</text>
</g>
<!-- org_liveSense_misc_i18n&#45;&gt;org_apache_sling_i18n -->
<g id="edge7" class="edge"><title>org_liveSense_misc_i18n&#45;&gt;org_apache_sling_i18n</title>
<path fill="none" stroke="yellow" d="M774.706,-380.164C688.734,-371.179 546.629,-355.133 415.352,-334.285"/>
<polygon fill="yellow" stroke="yellow" points="415.543,-330.771 405.115,-332.646 414.436,-337.683 415.543,-330.771"/>
</g>
<!-- org_ops4j_pax_logging_pax_logging_api -->
<g id="node9" class="node"><title>org_ops4j_pax_logging_pax_logging_api</title>
<polygon fill="green" stroke="black" points="1295.75,-297 1295.75,-333 1468.75,-333 1468.75,-297 1295.75,-297"/>
<text text-anchor="middle" x="1382.25" y="-322.1" font-family="Arial" font-size="8.00">OPS4J Pax Logging &#45; API</text>
<polyline fill="none" stroke="black" points="1295.75,-315 1468.75,-315 "/>
<text text-anchor="middle" x="1382.25" y="-304.1" font-family="Arial" font-size="8.00">org.ops4j.pax.logging.pax&#45;logging&#45;api(1.7.0)</text>
</g>
<!-- org_liveSense_misc_i18n&#45;&gt;org_ops4j_pax_logging_pax_logging_api -->
<g id="edge8" class="edge"><title>org_liveSense_misc_i18n&#45;&gt;org_ops4j_pax_logging_pax_logging_api</title>
<path fill="none" stroke="yellow" d="M932.066,-379.639C1016.79,-370.318 1155.66,-354.083 1285.55,-334.056"/>
<polygon fill="yellow" stroke="yellow" points="1286.34,-337.476 1295.68,-332.483 1285.26,-330.559 1286.34,-337.476"/>
</g>
<!-- org_liveSense_core -->
<g id="node10" class="node"><title>org_liveSense_core</title>
<polygon fill="green" stroke="black" points="422.746,-297 422.746,-333 561.746,-333 561.746,-297 422.746,-297"/>
<text text-anchor="middle" x="492.246" y="-322.1" font-family="Arial" font-size="8.00">liveSense :: Core</text>
<polyline fill="none" stroke="black" points="422.746,-315 561.746,-315 "/>
<text text-anchor="middle" x="492.246" y="-304.1" font-family="Arial" font-size="8.00">org.liveSense.core(2&#45;SNAPSHOT)</text>
</g>
<!-- org_liveSense_misc_i18n&#45;&gt;org_liveSense_core -->
<g id="edge9" class="edge"><title>org_liveSense_misc_i18n&#45;&gt;org_liveSense_core</title>
<path fill="none" stroke="yellow" d="M774.694,-373.716C720.475,-363.681 646.478,-349.637 572.033,-334.13"/>
<polygon fill="yellow" stroke="yellow" points="572.509,-330.654 562.004,-332.033 571.076,-337.506 572.509,-330.654"/>
</g>
<!-- org_apache_felix_configadmin&#45;&gt;org_ops4j_pax_logging_pax_logging_api -->
<g id="edge10" class="edge"><title>org_apache_felix_configadmin&#45;&gt;org_ops4j_pax_logging_pax_logging_api</title>
<path fill="none" stroke="green" d="M1063.06,-333.092C1081.56,-340.539 1104.1,-348.282 1125.25,-352 1191.78,-363.695 1210.66,-363.389 1277.25,-352 1295.4,-348.895 1314.59,-342.974 1331.53,-336.765"/>
<polygon fill="green" stroke="green" points="1333.1,-339.91 1341.21,-333.094 1330.62,-333.365 1333.1,-339.91"/>
</g>
<!-- org_apache_sling_jcr_api&#45;&gt;javax_jcr -->
<g id="edge11" class="edge"><title>org_apache_sling_jcr_api&#45;&gt;javax_jcr</title>
<path fill="none" stroke="green" d="M185.569,-333.079C202.033,-340.524 222.165,-348.269 241.246,-352 311.036,-365.646 491.038,-363.297 561.246,-352 580.869,-348.843 601.712,-342.761 620.028,-336.426"/>
<polygon fill="green" stroke="green" points="621.393,-339.656 629.637,-333.002 619.043,-333.062 621.393,-339.656"/>
</g>
<!-- org_apache_felix_eventadmin -->
<g id="node18" class="node"><title>org_apache_felix_eventadmin</title>
<polygon fill="#9ecae1" stroke="black" points="995.246,-75 995.246,-111 1135.25,-111 1135.25,-75 995.246,-75"/>
<text text-anchor="middle" x="1065.25" y="-100.1" font-family="Arial" font-size="8.00">Apache Felix EventAdmin</text>
<polyline fill="none" stroke="black" points="995.246,-93 1135.25,-93 "/>
<text text-anchor="middle" x="1065.25" y="-82.1" font-family="Arial" font-size="8.00">org.apache.felix.eventadmin(1.3.2)</text>
</g>
<!-- org_apache_sling_commons_osgi&#45;&gt;org_apache_felix_eventadmin -->
<g id="edge12" class="edge"><title>org_apache_sling_commons_osgi&#45;&gt;org_apache_felix_eventadmin</title>
<path fill="none" stroke="green" d="M1178.79,-296.761C1151.35,-274.381 1105.69,-232.627 1082.25,-186 1072.07,-165.768 1067.94,-140.288 1066.28,-121.275"/>
<polygon fill="green" stroke="green" points="1069.77,-120.918 1065.58,-111.185 1062.78,-121.404 1069.77,-120.918"/>
</g>
<!-- org_apache_felix_scr&#45;&gt;org_apache_felix_configadmin -->
<g id="edge14" class="edge"><title>org_apache_felix_scr&#45;&gt;org_apache_felix_configadmin</title>
<path fill="none" stroke="green" d="M922.309,-315C924.804,-315 927.299,-315 929.794,-315"/>
<polygon fill="green" stroke="green" points="930.052,-318.5 940.052,-315 930.052,-311.5 930.052,-318.5"/>
</g>
<!-- org_apache_felix_scr&#45;&gt;org_ops4j_pax_logging_pax_logging_api -->
<g id="edge16" class="edge"><title>org_apache_felix_scr&#45;&gt;org_ops4j_pax_logging_pax_logging_api</title>
<path fill="none" stroke="green" d="M886.931,-333.074C902.654,-340.517 921.912,-348.263 940.246,-352 1013.63,-366.956 1203.43,-364.625 1277.25,-352 1295.4,-348.895 1314.59,-342.974 1331.53,-336.765"/>
<polygon fill="green" stroke="green" points="1333.1,-339.91 1341.21,-333.094 1330.62,-333.365 1333.1,-339.91"/>
</g>
<!-- org_apache_karaf_shell_console -->
<g id="node11" class="node"><title>org_apache_karaf_shell_console</title>
<polygon fill="#3182bd" stroke="black" points="1183.25,-223 1183.25,-259 1349.25,-259 1349.25,-223 1183.25,-223"/>
<text text-anchor="middle" x="1266.25" y="-248.1" font-family="Arial" font-size="8.00">Apache Karaf :: Shell :: Console</text>
<polyline fill="none" stroke="black" points="1183.25,-241 1349.25,-241 "/>
<text text-anchor="middle" x="1266.25" y="-230.1" font-family="Arial" font-size="8.00">org.apache.karaf.shell.console(3.0.0.RC1)</text>
</g>
<!-- org_apache_felix_scr&#45;&gt;org_apache_karaf_shell_console -->
<g id="edge13" class="edge"><title>org_apache_felix_scr&#45;&gt;org_apache_karaf_shell_console</title>
<path fill="none" stroke="green" d="M922.517,-297.761C925.463,-297.15 928.382,-296.561 931.246,-296 1012.49,-280.095 1105.49,-265.379 1172.86,-255.34"/>
<polygon fill="green" stroke="green" points="1173.65,-258.761 1183.03,-253.831 1172.62,-251.837 1173.65,-258.761"/>
</g>
<!-- org_apache_felix_metatype -->
<g id="node26" class="node"><title>org_apache_felix_metatype</title>
<polygon fill="#deebf7" stroke="black" points="999.746,-1 999.746,-37 1130.75,-37 1130.75,-1 999.746,-1"/>
<text text-anchor="middle" x="1065.25" y="-26.1" font-family="Arial" font-size="8.00">Apache Felix Metatype Service</text>
<polyline fill="none" stroke="black" points="999.746,-19 1130.75,-19 "/>
<text text-anchor="middle" x="1065.25" y="-8.1" font-family="Arial" font-size="8.00">org.apache.felix.metatype(1.0.6)</text>
</g>
<!-- org_apache_felix_scr&#45;&gt;org_apache_felix_metatype -->
<g id="edge15" class="edge"><title>org_apache_felix_scr&#45;&gt;org_apache_felix_metatype</title>
<path fill="none" stroke="green" d="M843.497,-296.833C826.879,-265.062 797.52,-195.971 826.246,-148 861.434,-89.2382 933.838,-55.9225 989.782,-38.1106"/>
<polygon fill="green" stroke="green" points="991.141,-41.3544 999.669,-35.0677 989.082,-34.6641 991.141,-41.3544"/>
</g>
<!-- org_apache_sling_i18n&#45;&gt;javax_jcr -->
<g id="edge17" class="edge"><title>org_apache_sling_i18n&#45;&gt;javax_jcr</title>
<path fill="none" stroke="green" d="M361.835,-333.089C379.779,-340.535 401.662,-348.279 422.246,-352 483.039,-362.989 500.253,-361.814 561.246,-352 580.869,-348.843 601.712,-342.761 620.028,-336.426"/>
<polygon fill="green" stroke="green" points="621.393,-339.656 629.637,-333.002 619.043,-333.062 621.393,-339.656"/>
</g>
<!-- org_apache_sling_i18n&#45;&gt;org_apache_felix_scr -->
<g id="edge20" class="edge"><title>org_apache_sling_i18n&#45;&gt;org_apache_felix_scr</title>
<path fill="none" stroke="green" d="M361.835,-333.089C379.779,-340.535 401.662,-348.279 422.246,-352 497.472,-365.598 691.342,-367.266 766.246,-352 781.143,-348.964 796.649,-343.281 810.374,-337.264"/>
<polygon fill="green" stroke="green" points="811.915,-340.408 819.561,-333.074 809.01,-334.039 811.915,-340.408"/>
</g>
<!-- org_apache_sling_i18n&#45;&gt;org_ops4j_pax_logging_pax_logging_api -->
<g id="edge21" class="edge"><title>org_apache_sling_i18n&#45;&gt;org_ops4j_pax_logging_pax_logging_api</title>
<path fill="none" stroke="green" d="M361.835,-333.089C379.779,-340.535 401.662,-348.279 422.246,-352 515.731,-368.899 1183.61,-368.016 1277.25,-352 1295.4,-348.895 1314.59,-342.974 1331.53,-336.765"/>
<polygon fill="green" stroke="green" points="1333.1,-339.91 1341.21,-333.094 1330.62,-333.365 1333.1,-339.91"/>
</g>
<!-- org_apache_sling_api -->
<g id="node12" class="node"><title>org_apache_sling_api</title>
<polygon fill="#3182bd" stroke="black" points="413.746,-223 413.746,-259 524.746,-259 524.746,-223 413.746,-223"/>
<text text-anchor="middle" x="469.246" y="-248.1" font-family="Arial" font-size="8.00">Apache Sling API</text>
<polyline fill="none" stroke="black" points="413.746,-241 524.746,-241 "/>
<text text-anchor="middle" x="469.246" y="-230.1" font-family="Arial" font-size="8.00">org.apache.sling.api(2.4.2)</text>
</g>
<!-- org_apache_sling_i18n&#45;&gt;org_apache_sling_api -->
<g id="edge18" class="edge"><title>org_apache_sling_i18n&#45;&gt;org_apache_sling_api</title>
<path fill="none" stroke="green" d="M357.846,-296.937C378.137,-286.931 403.961,-274.196 425.635,-263.507"/>
<polygon fill="green" stroke="green" points="427.221,-266.627 434.642,-259.065 424.125,-260.349 427.221,-266.627"/>
</g>
<!-- org_apache_geronimo_specs_geronimo_servlet_3_0_spec -->
<g id="node13" class="node"><title>org_apache_geronimo_specs_geronimo_servlet_3_0_spec</title>
<polygon fill="#3182bd" stroke="black" points="67.2463,-149 67.2463,-185 297.246,-185 297.246,-149 67.2463,-149"/>
<text text-anchor="middle" x="182.246" y="-174.1" font-family="Arial" font-size="8.00">Servlet 3.0</text>
<polyline fill="none" stroke="black" points="67.2463,-167 297.246,-167 "/>
<text text-anchor="middle" x="182.246" y="-156.1" font-family="Arial" font-size="8.00">org.apache.geronimo.specs.geronimo&#45;servlet_3.0_spec(1.0)</text>
</g>
<!-- org_apache_sling_i18n&#45;&gt;org_apache_geronimo_specs_geronimo_servlet_3_0_spec -->
<g id="edge19" class="edge"><title>org_apache_sling_i18n&#45;&gt;org_apache_geronimo_specs_geronimo_servlet_3_0_spec</title>
<path fill="none" stroke="green" d="M241.419,-297.673C238.324,-297.1 235.258,-296.541 232.246,-296 182.839,-287.128 41.7899,-298.219 9.24626,-260 -19.9242,-225.743 27.2303,-202.326 79.6272,-187.692"/>
<polygon fill="green" stroke="green" points="80.6999,-191.028 89.4547,-185.061 78.8897,-184.266 80.6999,-191.028"/>
</g>
<!-- org_ops4j_pax_logging_pax_logging_api&#45;&gt;org_apache_felix_eventadmin -->
<g id="edge33" class="edge"><title>org_ops4j_pax_logging_pax_logging_api&#45;&gt;org_apache_felix_eventadmin</title>
<path fill="none" stroke="#3182bd" d="M1380.43,-296.867C1381.75,-263.261 1387.95,-188.457 1348.25,-148 1316.8,-115.961 1198.71,-120.51 1141.8,-112.739"/>
<polygon fill="#3182bd" stroke="#3182bd" points="1142.03,-109.231 1131.6,-111.07 1140.9,-116.139 1142.03,-109.231"/>
</g>
<!-- org_liveSense_core&#45;&gt;javax_jcr -->
<g id="edge22" class="edge"><title>org_liveSense_core&#45;&gt;javax_jcr</title>
<path fill="none" stroke="green" d="M561.889,-315C564.553,-315 567.217,-315 569.882,-315"/>
<polygon fill="green" stroke="green" points="570.158,-318.5 580.158,-315 570.158,-311.5 570.158,-318.5"/>
</g>
<!-- org_liveSense_core&#45;&gt;org_apache_sling_commons_osgi -->
<g id="edge24" class="edge"><title>org_liveSense_core&#45;&gt;org_apache_sling_commons_osgi</title>
<path fill="none" stroke="green" d="M526.341,-333.075C542.249,-340.519 561.726,-348.265 580.246,-352 694.828,-375.108 991.367,-373.582 1106.25,-352 1122.51,-348.944 1139.57,-343.183 1154.68,-337.102"/>
<polygon fill="green" stroke="green" points="1156.41,-340.17 1164.29,-333.084 1153.71,-333.711 1156.41,-340.17"/>
</g>
<!-- org_liveSense_core&#45;&gt;org_apache_commons_lang -->
<g id="edge26" class="edge"><title>org_liveSense_core&#45;&gt;org_apache_commons_lang</title>
<path fill="none" stroke="green" d="M526.341,-333.075C542.249,-340.519 561.726,-348.265 580.246,-352 676.966,-371.506 1371.79,-372.755 1468.25,-352 1482.25,-348.986 1496.75,-343.381 1509.59,-337.429"/>
<polygon fill="green" stroke="green" points="1511.13,-340.57 1518.61,-333.066 1508.09,-334.268 1511.13,-340.57"/>
</g>
<!-- org_liveSense_core&#45;&gt;org_apache_felix_scr -->
<g id="edge28" class="edge"><title>org_liveSense_core&#45;&gt;org_apache_felix_scr</title>
<path fill="none" stroke="green" d="M526.341,-333.075C542.249,-340.519 561.726,-348.265 580.246,-352 661.281,-368.343 685.245,-368.509 766.246,-352 781.143,-348.964 796.649,-343.281 810.374,-337.264"/>
<polygon fill="green" stroke="green" points="811.915,-340.408 819.561,-333.074 809.01,-334.039 811.915,-340.408"/>
</g>
<!-- org_liveSense_core&#45;&gt;org_ops4j_pax_logging_pax_logging_api -->
<g id="edge29" class="edge"><title>org_liveSense_core&#45;&gt;org_ops4j_pax_logging_pax_logging_api</title>
<path fill="none" stroke="green" d="M526.341,-333.075C542.249,-340.519 561.726,-348.265 580.246,-352 656.162,-367.31 1200.91,-365.056 1277.25,-352 1295.4,-348.895 1314.59,-342.974 1331.53,-336.765"/>
<polygon fill="green" stroke="green" points="1333.1,-339.91 1341.21,-333.094 1330.62,-333.365 1333.1,-339.91"/>
</g>
<!-- org_liveSense_core&#45;&gt;org_apache_sling_api -->
<g id="edge23" class="edge"><title>org_liveSense_core&#45;&gt;org_apache_sling_api</title>
<path fill="none" stroke="green" d="M486.796,-296.937C484.142,-288.63 480.888,-278.444 477.906,-269.108"/>
<polygon fill="green" stroke="green" points="481.195,-267.901 474.818,-259.441 474.527,-270.032 481.195,-267.901"/>
</g>
<!-- org_liveSense_core&#45;&gt;org_apache_geronimo_specs_geronimo_servlet_3_0_spec -->
<g id="edge25" class="edge"><title>org_liveSense_core&#45;&gt;org_apache_geronimo_specs_geronimo_servlet_3_0_spec</title>
<path fill="none" stroke="green" d="M422.505,-297.887C419.379,-297.235 416.282,-296.603 413.246,-296 366.377,-286.688 235.629,-293.185 201.246,-260 184.158,-243.507 180.362,-216.01 180.266,-195.364"/>
<polygon fill="green" stroke="green" points="183.767,-195.366 180.502,-185.287 176.769,-195.202 183.767,-195.366"/>
</g>
<!-- org_apache_commons_beanutils -->
<g id="node14" class="node"><title>org_apache_commons_beanutils</title>
<polygon fill="#3182bd" stroke="black" points="838.746,-223 838.746,-259 989.746,-259 989.746,-223 838.746,-223"/>
<text text-anchor="middle" x="914.246" y="-248.1" font-family="Arial" font-size="8.00">Commons BeanUtils</text>
<polyline fill="none" stroke="black" points="838.746,-241 989.746,-241 "/>
<text text-anchor="middle" x="914.246" y="-230.1" font-family="Arial" font-size="8.00">org.apache.commons.beanutils(1.8.3)</text>
</g>
<!-- org_liveSense_core&#45;&gt;org_apache_commons_beanutils -->
<g id="edge27" class="edge"><title>org_liveSense_core&#45;&gt;org_apache_commons_beanutils</title>
<path fill="none" stroke="green" d="M561.979,-297.842C565.107,-297.202 568.207,-296.585 571.246,-296 658.558,-279.2 759.121,-263.833 828.681,-253.825"/>
<polygon fill="green" stroke="green" points="829.311,-257.271 838.714,-252.388 828.318,-250.341 829.311,-257.271"/>
</g>
<!-- org_apache_servicemix_bundles_guava -->
<g id="node15" class="node"><title>org_apache_servicemix_bundles_guava</title>
<polygon fill="#3182bd" stroke="black" points="210.746,-223 210.746,-259 395.746,-259 395.746,-223 210.746,-223"/>
<text text-anchor="middle" x="303.246" y="-248.1" font-family="Arial" font-size="8.00">Apache ServiceMix :: Bundles :: guava</text>
<polyline fill="none" stroke="black" points="210.746,-241 395.746,-241 "/>
<text text-anchor="middle" x="303.246" y="-230.1" font-family="Arial" font-size="8.00">org.apache.servicemix.bundles.guava(11.0.0.1)</text>
</g>
<!-- org_liveSense_core&#45;&gt;org_apache_servicemix_bundles_guava -->
<g id="edge30" class="edge"><title>org_liveSense_core&#45;&gt;org_apache_servicemix_bundles_guava</title>
<path fill="none" stroke="green" d="M447.456,-296.937C420.486,-286.663 385.964,-273.511 357.459,-262.652"/>
<polygon fill="green" stroke="green" points="358.633,-259.354 348.042,-259.065 356.141,-265.896 358.633,-259.354"/>
</g>
<!-- net_entropysoft_transmorph -->
<g id="node16" class="node"><title>net_entropysoft_transmorph</title>
<polygon fill="#3182bd" stroke="black" points="18.7463,-223 18.7463,-259 153.746,-259 153.746,-223 18.7463,-223"/>
<text text-anchor="middle" x="86.2463" y="-248.1" font-family="Arial" font-size="8.00">Transmorph</text>
<polyline fill="none" stroke="black" points="18.7463,-241 153.746,-241 "/>
<text text-anchor="middle" x="86.2463" y="-230.1" font-family="Arial" font-size="8.00">net.entropysoft.transmorph(3.1.1)</text>
</g>
<!-- org_liveSense_core&#45;&gt;net_entropysoft_transmorph -->
<g id="edge31" class="edge"><title>org_liveSense_core&#45;&gt;net_entropysoft_transmorph</title>
<path fill="none" stroke="green" d="M422.521,-297.803C419.391,-297.173 416.288,-296.569 413.246,-296 305.065,-275.76 276.507,-279.811 168.246,-260 166.956,-259.764 165.655,-259.522 164.346,-259.275"/>
<polygon fill="green" stroke="green" points="164.67,-255.773 154.185,-257.298 163.332,-262.644 164.67,-255.773"/>
</g>
<!-- org_apache_jackrabbit_jackrabbit_jcr_commons -->
<g id="node17" class="node"><title>org_apache_jackrabbit_jackrabbit_jcr_commons</title>
<polygon fill="#3182bd" stroke="black" points="542.746,-223 542.746,-259 743.746,-259 743.746,-223 542.746,-223"/>
<text text-anchor="middle" x="643.246" y="-248.1" font-family="Arial" font-size="8.00">Jackrabbit JCR Commons</text>
<polyline fill="none" stroke="black" points="542.746,-241 743.746,-241 "/>
<text text-anchor="middle" x="643.246" y="-230.1" font-family="Arial" font-size="8.00">org.apache.jackrabbit.jackrabbit&#45;jcr&#45;commons(2.4.2)</text>
</g>
<!-- org_liveSense_core&#45;&gt;org_apache_jackrabbit_jackrabbit_jcr_commons -->
<g id="edge32" class="edge"><title>org_liveSense_core&#45;&gt;org_apache_jackrabbit_jackrabbit_jcr_commons</title>
<path fill="none" stroke="green" d="M528.031,-296.937C549.017,-286.931 575.725,-274.196 598.142,-263.507"/>
<polygon fill="green" stroke="green" points="599.937,-266.528 607.457,-259.065 596.924,-260.21 599.937,-266.528"/>
</g>
<!-- org_apache_karaf_shell_console&#45;&gt;org_ops4j_pax_logging_pax_logging_api -->
<g id="edge39" class="edge"><title>org_apache_karaf_shell_console&#45;&gt;org_ops4j_pax_logging_pax_logging_api</title>
<path fill="none" stroke="#3182bd" d="M1293.94,-259.19C1309.61,-268.915 1329.38,-281.187 1346.24,-291.652"/>
<polygon fill="#3182bd" stroke="#3182bd" points="1344.41,-294.637 1354.76,-296.937 1348.11,-288.69 1344.41,-294.637"/>
</g>
<!-- org_apache_karaf_shell_console&#45;&gt;org_apache_felix_eventadmin -->
<g id="edge36" class="edge"><title>org_apache_karaf_shell_console&#45;&gt;org_apache_felix_eventadmin</title>
<path fill="none" stroke="#3182bd" d="M1183.84,-222.882C1159.43,-214.78 1133.97,-203.004 1114.25,-186 1094.19,-168.717 1081.06,-141.145 1073.48,-120.687"/>
<polygon fill="#3182bd" stroke="#3182bd" points="1076.71,-119.303 1070.11,-111.01 1070.1,-121.605 1076.71,-119.303"/>
</g>
<!-- org_apache_aries_blueprint_api -->
<g id="node19" class="node"><title>org_apache_aries_blueprint_api</title>
<polygon fill="#9ecae1" stroke="black" points="1153.75,-75 1153.75,-111 1298.75,-111 1298.75,-75 1153.75,-75"/>
<text text-anchor="middle" x="1226.25" y="-100.1" font-family="Arial" font-size="8.00">Apache Aries Blueprint API</text>
<polyline fill="none" stroke="black" points="1153.75,-93 1298.75,-93 "/>
<text text-anchor="middle" x="1226.25" y="-82.1" font-family="Arial" font-size="8.00">org.apache.aries.blueprint.api(1.0.0)</text>
</g>
<!-- org_apache_karaf_shell_console&#45;&gt;org_apache_aries_blueprint_api -->
<g id="edge34" class="edge"><title>org_apache_karaf_shell_console&#45;&gt;org_apache_aries_blueprint_api</title>
<path fill="none" stroke="#3182bd" d="M1314.87,-222.811C1331.32,-214.396 1347.88,-202.443 1357.25,-186 1365.6,-171.324 1366.64,-162.035 1357.25,-148 1349.38,-136.251 1322.17,-124.166 1294.57,-114.415"/>
<polygon fill="#3182bd" stroke="#3182bd" points="1295.41,-111.006 1284.82,-111.068 1293.14,-117.626 1295.41,-111.006"/>
</g>
<!-- jline -->
<g id="node20" class="node"><title>jline</title>
<polygon fill="#9ecae1" stroke="black" points="1123.25,-149 1123.25,-185 1177.25,-185 1177.25,-149 1123.25,-149"/>
<text text-anchor="middle" x="1150.25" y="-174.1" font-family="Arial" font-size="8.00">JLine</text>
<polyline fill="none" stroke="black" points="1123.25,-167 1177.25,-167 "/>
<text text-anchor="middle" x="1150.25" y="-156.1" font-family="Arial" font-size="8.00">jline(2.9.0)</text>
</g>
<!-- org_apache_karaf_shell_console&#45;&gt;jline -->
<g id="edge35" class="edge"><title>org_apache_karaf_shell_console&#45;&gt;jline</title>
<path fill="none" stroke="#3182bd" d="M1238.76,-222.937C1223.01,-213.163 1203.07,-200.786 1186.1,-190.256"/>
<polygon fill="#3182bd" stroke="#3182bd" points="1187.88,-187.24 1177.54,-184.941 1184.19,-193.188 1187.88,-187.24"/>
</g>
<!-- org_apache_aries_blueprint_core -->
<g id="node21" class="node"><title>org_apache_aries_blueprint_core</title>
<polygon fill="#9ecae1" stroke="black" points="1461.25,-149 1461.25,-185 1611.25,-185 1611.25,-149 1461.25,-149"/>
<text text-anchor="middle" x="1536.25" y="-174.1" font-family="Arial" font-size="8.00">Apache Aries Blueprint Core</text>
<polyline fill="none" stroke="black" points="1461.25,-167 1611.25,-167 "/>
<text text-anchor="middle" x="1536.25" y="-156.1" font-family="Arial" font-size="8.00">org.apache.aries.blueprint.core(1.1.0)</text>
</g>
<!-- org_apache_karaf_shell_console&#45;&gt;org_apache_aries_blueprint_core -->
<g id="edge37" class="edge"><title>org_apache_karaf_shell_console&#45;&gt;org_apache_aries_blueprint_core</title>
<path fill="none" stroke="#3182bd" d="M1330.23,-222.937C1369.93,-212.35 1421.09,-198.708 1462.49,-187.667"/>
<polygon fill="#3182bd" stroke="#3182bd" points="1463.49,-191.024 1472.25,-185.065 1461.69,-184.26 1463.49,-191.024"/>
</g>
<!-- org_apache_sshd_core -->
<g id="node22" class="node"><title>org_apache_sshd_core</title>
<polygon fill="#9ecae1" stroke="black" points="1743.75,-149 1743.75,-185 1860.75,-185 1860.75,-149 1743.75,-149"/>
<text text-anchor="middle" x="1802.25" y="-174.1" font-family="Arial" font-size="8.00">Apache Mina SSHD :: Core</text>
<polyline fill="none" stroke="black" points="1743.75,-167 1860.75,-167 "/>
<text text-anchor="middle" x="1802.25" y="-156.1" font-family="Arial" font-size="8.00">org.apache.sshd.core(0.8.0)</text>
</g>
<!-- org_apache_karaf_shell_console&#45;&gt;org_apache_sshd_core -->
<g id="edge38" class="edge"><title>org_apache_karaf_shell_console&#45;&gt;org_apache_sshd_core</title>
<path fill="none" stroke="#3182bd" d="M1349.41,-228.829C1455.06,-214.638 1635.42,-190.41 1733.61,-177.219"/>
<polygon fill="#3182bd" stroke="#3182bd" points="1734.28,-180.661 1743.72,-175.861 1733.35,-173.724 1734.28,-180.661"/>
</g>
<!-- org_apache_karaf_jaas_boot -->
<g id="node23" class="node"><title>org_apache_karaf_jaas_boot</title>
<polygon fill="#9ecae1" stroke="black" points="1195.75,-149 1195.75,-185 1348.75,-185 1348.75,-149 1195.75,-149"/>
<text text-anchor="middle" x="1272.25" y="-174.1" font-family="Arial" font-size="8.00">Apache Karaf :: JAAS :: Boot</text>
<polyline fill="none" stroke="black" points="1195.75,-167 1348.75,-167 "/>
<text text-anchor="middle" x="1272.25" y="-156.1" font-family="Arial" font-size="8.00">org.apache.karaf.jaas.boot(3.0.0.RC1)</text>
</g>
<!-- org_apache_karaf_shell_console&#45;&gt;org_apache_karaf_jaas_boot -->
<g id="edge40" class="edge"><title>org_apache_karaf_shell_console&#45;&gt;org_apache_karaf_jaas_boot</title>
<path fill="none" stroke="#3182bd" d="M1267.67,-222.937C1268.35,-214.807 1269.17,-204.876 1269.94,-195.705"/>
<polygon fill="#3182bd" stroke="#3182bd" points="1273.45,-195.697 1270.79,-185.441 1266.47,-195.115 1273.45,-195.697"/>
</g>
<!-- org_apache_sling_api&#45;&gt;org_ops4j_pax_logging_pax_logging_api -->
<g id="edge41" class="edge"><title>org_apache_sling_api&#45;&gt;org_ops4j_pax_logging_pax_logging_api</title>
<path fill="none" stroke="#3182bd" d="M524.927,-258.461C527.728,-259.037 530.512,-259.556 533.246,-260 860.734,-313.176 951.7,-258.131 1285.77,-296.061"/>
<polygon fill="#3182bd" stroke="#3182bd" points="1285.39,-299.54 1295.72,-297.21 1286.19,-292.586 1285.39,-299.54"/>
</g>
<!-- org_apache_sling_api&#45;&gt;org_apache_geronimo_specs_geronimo_servlet_3_0_spec -->
<g id="edge42" class="edge"><title>org_apache_sling_api&#45;&gt;org_apache_geronimo_specs_geronimo_servlet_3_0_spec</title>
<path fill="none" stroke="#3182bd" d="M413.608,-224.468C410.443,-223.624 407.306,-222.796 404.246,-222 358.222,-210.033 306.617,-197.432 264.752,-187.414"/>
<polygon fill="#3182bd" stroke="#3182bd" points="265.418,-183.975 254.879,-185.057 263.792,-190.784 265.418,-183.975"/>
</g>
<!-- org_apache_commons_beanutils&#45;&gt;org_ops4j_pax_logging_pax_logging_api -->
<g id="edge43" class="edge"><title>org_apache_commons_beanutils&#45;&gt;org_ops4j_pax_logging_pax_logging_api</title>
<path fill="none" stroke="#3182bd" d="M989.91,-252.053C1062.9,-261.963 1176.74,-277.976 1285.5,-295.912"/>
<polygon fill="#3182bd" stroke="#3182bd" points="1285.23,-299.415 1295.67,-297.597 1286.38,-292.509 1285.23,-299.415"/>
</g>
<!-- org_apache_commons_collections -->
<g id="node24" class="node"><title>org_apache_commons_collections</title>
<polygon fill="#9ecae1" stroke="black" points="835.246,-149 835.246,-185 991.246,-185 991.246,-149 835.246,-149"/>
<text text-anchor="middle" x="913.246" y="-174.1" font-family="Arial" font-size="8.00">Commons Collections</text>
<polyline fill="none" stroke="black" points="835.246,-167 991.246,-167 "/>
<text text-anchor="middle" x="913.246" y="-156.1" font-family="Arial" font-size="8.00">org.apache.commons.collections(3.2.1)</text>
</g>
<!-- org_apache_commons_beanutils&#45;&gt;org_apache_commons_collections -->
<g id="edge44" class="edge"><title>org_apache_commons_beanutils&#45;&gt;org_apache_commons_collections</title>
<path fill="none" stroke="#3182bd" d="M914.009,-222.937C913.896,-214.807 913.758,-204.876 913.631,-195.705"/>
<polygon fill="#3182bd" stroke="#3182bd" points="917.127,-195.391 913.488,-185.441 910.128,-195.488 917.127,-195.391"/>
</g>
<!-- org_apache_jackrabbit_jackrabbit_jcr_commons&#45;&gt;javax_jcr -->
<g id="edge45" class="edge"><title>org_apache_jackrabbit_jackrabbit_jcr_commons&#45;&gt;javax_jcr</title>
<path fill="none" stroke="#3182bd" d="M650.513,-259.441C654.035,-267.892 658.339,-278.223 662.251,-287.612"/>
<polygon fill="#3182bd" stroke="#3182bd" points="659.06,-289.052 666.137,-296.937 665.521,-286.36 659.06,-289.052"/>
</g>
<!-- org_apache_jackrabbit_jackrabbit_api -->
<g id="node25" class="node"><title>org_apache_jackrabbit_jackrabbit_api</title>
<polygon fill="#9ecae1" stroke="black" points="573.246,-149 573.246,-185 739.246,-185 739.246,-149 573.246,-149"/>
<text text-anchor="middle" x="656.246" y="-174.1" font-family="Arial" font-size="8.00">Apache Jackrabbit API</text>
<polyline fill="none" stroke="black" points="573.246,-167 739.246,-167 "/>
<text text-anchor="middle" x="656.246" y="-156.1" font-family="Arial" font-size="8.00">org.apache.jackrabbit.jackrabbit&#45;api(2.4.2)</text>
</g>
<!-- org_apache_jackrabbit_jackrabbit_jcr_commons&#45;&gt;org_apache_jackrabbit_jackrabbit_api -->
<g id="edge46" class="edge"><title>org_apache_jackrabbit_jackrabbit_jcr_commons&#45;&gt;org_apache_jackrabbit_jackrabbit_api</title>
<path fill="none" stroke="#3182bd" d="M646.327,-222.937C647.811,-214.719 649.627,-204.66 651.298,-195.406"/>
<polygon fill="#3182bd" stroke="#3182bd" points="654.765,-195.903 653.097,-185.441 647.876,-194.66 654.765,-195.903"/>
</g>
<!-- org_apache_felix_eventadmin&#45;&gt;org_apache_felix_configadmin -->
<g id="edge48" class="edge"><title>org_apache_felix_eventadmin&#45;&gt;org_apache_felix_configadmin</title>
<path fill="none" stroke="#9ecae1" d="M1056.9,-111.109C1052.17,-121.534 1046.55,-135.26 1043.25,-148 1030.89,-195.717 1026.13,-253.167 1024.32,-286.444"/>
<polygon fill="#9ecae1" stroke="#9ecae1" points="1020.81,-286.594 1023.81,-296.754 1027.8,-286.938 1020.81,-286.594"/>
</g>
<!-- org_apache_felix_eventadmin&#45;&gt;org_ops4j_pax_logging_pax_logging_api -->
<g id="edge47" class="edge"><title>org_apache_felix_eventadmin&#45;&gt;org_ops4j_pax_logging_pax_logging_api</title>
<path fill="none" stroke="#9ecae1" d="M1135.28,-108.093C1141.7,-109.46 1148.1,-110.788 1154.25,-112 1201.13,-121.248 1332.77,-113.896 1366.25,-148 1402.38,-184.822 1400.5,-250.096 1392.92,-286.866"/>
<polygon fill="#9ecae1" stroke="#9ecae1" points="1389.45,-286.328 1390.54,-296.867 1396.26,-287.949 1389.45,-286.328"/>
</g>
<!-- org_apache_felix_eventadmin&#45;&gt;org_apache_felix_metatype -->
<g id="edge49" class="edge"><title>org_apache_felix_eventadmin&#45;&gt;org_apache_felix_metatype</title>
<path fill="none" stroke="#9ecae1" d="M1065.25,-74.937C1065.25,-66.8072 1065.25,-56.8761 1065.25,-47.7047"/>
<polygon fill="#9ecae1" stroke="#9ecae1" points="1068.75,-47.4406 1065.25,-37.4407 1061.75,-47.4407 1068.75,-47.4406"/>
</g>
<!-- org_apache_aries_blueprint_core&#45;&gt;org_ops4j_pax_logging_pax_logging_api -->
<g id="edge53" class="edge"><title>org_apache_aries_blueprint_core&#45;&gt;org_ops4j_pax_logging_pax_logging_api</title>
<path fill="none" stroke="#9ecae1" d="M1517.92,-185.378C1490.49,-211.38 1438.68,-260.494 1407.63,-289.932"/>
<polygon fill="#9ecae1" stroke="#9ecae1" points="1405.06,-287.546 1400.21,-296.966 1409.88,-292.626 1405.06,-287.546"/>
</g>
<!-- org_apache_aries_blueprint_core&#45;&gt;org_apache_felix_eventadmin -->
<g id="edge52" class="edge"><title>org_apache_aries_blueprint_core&#45;&gt;org_apache_felix_eventadmin</title>
<path fill="none" stroke="#9ecae1" d="M1461.04,-155.274C1444.01,-152.864 1426.01,-150.331 1409.25,-148 1291.96,-131.691 1261.79,-133.017 1145.25,-112 1145.15,-111.982 1145.04,-111.964 1144.94,-111.945"/>
<polygon fill="#9ecae1" stroke="#9ecae1" points="1145.89,-108.563 1135.42,-110.146 1144.59,-115.441 1145.89,-108.563"/>
</g>
<!-- org_apache_aries_blueprint_core&#45;&gt;org_apache_aries_blueprint_api -->
<g id="edge51" class="edge"><title>org_apache_aries_blueprint_core&#45;&gt;org_apache_aries_blueprint_api</title>
<path fill="none" stroke="#9ecae1" d="M1462.78,-148.937C1416.56,-138.202 1356.82,-124.327 1308.94,-113.207"/>
<polygon fill="#9ecae1" stroke="#9ecae1" points="1309.45,-109.731 1298.92,-110.878 1307.87,-116.55 1309.45,-109.731"/>
</g>
<!-- org_apache_aries_proxy_api -->
<g id="node27" class="node"><title>org_apache_aries_proxy_api</title>
<polygon fill="#deebf7" stroke="black" points="1317.25,-75 1317.25,-111 1451.25,-111 1451.25,-75 1317.25,-75"/>
<text text-anchor="middle" x="1384.25" y="-100.1" font-family="Arial" font-size="8.00">Apache Aries Proxy API</text>
<polyline fill="none" stroke="black" points="1317.25,-93 1451.25,-93 "/>
<text text-anchor="middle" x="1384.25" y="-82.1" font-family="Arial" font-size="8.00">org.apache.aries.proxy.api(1.0.0)</text>
</g>
<!-- org_apache_aries_blueprint_core&#45;&gt;org_apache_aries_proxy_api -->
<g id="edge50" class="edge"><title>org_apache_aries_blueprint_core&#45;&gt;org_apache_aries_proxy_api</title>
<path fill="none" stroke="#9ecae1" d="M1500.22,-148.937C1479.01,-138.886 1451.97,-126.082 1429.35,-115.364"/>
<polygon fill="#9ecae1" stroke="#9ecae1" points="1430.81,-112.183 1420.27,-111.065 1427.81,-118.509 1430.81,-112.183"/>
</g>
<!-- org_apache_aries_util -->
<g id="node28" class="node"><title>org_apache_aries_util</title>
<polygon fill="#deebf7" stroke="black" points="1600.25,-1 1600.25,-37 1712.25,-37 1712.25,-1 1600.25,-1"/>
<text text-anchor="middle" x="1656.25" y="-26.1" font-family="Arial" font-size="8.00">Apache Aries Util</text>
<polyline fill="none" stroke="black" points="1600.25,-19 1712.25,-19 "/>
<text text-anchor="middle" x="1656.25" y="-8.1" font-family="Arial" font-size="8.00">org.apache.aries.util(1.1.0)</text>
</g>
<!-- org_apache_aries_blueprint_core&#45;&gt;org_apache_aries_util -->
<g id="edge54" class="edge"><title>org_apache_aries_blueprint_core&#45;&gt;org_apache_aries_util</title>
<path fill="none" stroke="#9ecae1" d="M1573.13,-148.938C1589.38,-139.888 1607.61,-127.424 1620.25,-112 1635.72,-93.1039 1645.12,-66.762 1650.41,-47.1054"/>
<polygon fill="#9ecae1" stroke="#9ecae1" points="1653.85,-47.7874 1652.88,-37.237 1647.06,-46.0892 1653.85,-47.7874"/>
</g>
<!-- org_apache_aries_quiesce_api -->
<g id="node29" class="node"><title>org_apache_aries_quiesce_api</title>
<polygon fill="#deebf7" stroke="black" points="1469.25,-75 1469.25,-111 1611.25,-111 1611.25,-75 1469.25,-75"/>
<text text-anchor="middle" x="1540.25" y="-100.1" font-family="Arial" font-size="8.00">Apache Aries Quiesce API</text>
<polyline fill="none" stroke="black" points="1469.25,-93 1611.25,-93 "/>
<text text-anchor="middle" x="1540.25" y="-82.1" font-family="Arial" font-size="8.00">org.apache.aries.quiesce.api(1.0.0)</text>
</g>
<!-- org_apache_aries_blueprint_core&#45;&gt;org_apache_aries_quiesce_api -->
<g id="edge55" class="edge"><title>org_apache_aries_blueprint_core&#45;&gt;org_apache_aries_quiesce_api</title>
<path fill="none" stroke="#9ecae1" d="M1537.19,-148.937C1537.65,-140.807 1538.2,-130.876 1538.71,-121.705"/>
<polygon fill="#9ecae1" stroke="#9ecae1" points="1542.22,-121.619 1539.28,-111.441 1535.23,-121.231 1542.22,-121.619"/>
</g>
<!-- org_apache_sshd_core&#45;&gt;org_ops4j_pax_logging_pax_logging_api -->
<g id="edge56" class="edge"><title>org_apache_sshd_core&#45;&gt;org_ops4j_pax_logging_pax_logging_api</title>
<path fill="none" stroke="#9ecae1" d="M1793.85,-185.202C1782.42,-206.596 1759.84,-242.435 1729.25,-260 1634.28,-314.53 1591.86,-279.717 1478.88,-296.03"/>
<polygon fill="#9ecae1" stroke="#9ecae1" points="1478.17,-292.599 1468.82,-297.59 1479.24,-299.516 1478.17,-292.599"/>
</g>
<!-- org_apache_mina_core -->
<g id="node30" class="node"><title>org_apache_mina_core</title>
<polygon fill="#deebf7" stroke="black" points="1845.75,-75 1845.75,-111 1962.75,-111 1962.75,-75 1845.75,-75"/>
<text text-anchor="middle" x="1904.25" y="-100.1" font-family="Arial" font-size="8.00">Apache MINA Core</text>
<polyline fill="none" stroke="black" points="1845.75,-93 1962.75,-93 "/>
<text text-anchor="middle" x="1904.25" y="-82.1" font-family="Arial" font-size="8.00">org.apache.mina.core(2.0.7)</text>
</g>
<!-- org_apache_sshd_core&#45;&gt;org_apache_mina_core -->
<g id="edge57" class="edge"><title>org_apache_sshd_core&#45;&gt;org_apache_mina_core</title>
<path fill="none" stroke="#9ecae1" d="M1826.42,-148.937C1839.91,-139.412 1856.91,-127.415 1871.57,-117.063"/>
<polygon fill="#9ecae1" stroke="#9ecae1" points="1873.74,-119.816 1879.89,-111.19 1869.71,-114.098 1873.74,-119.816"/>
</g>
<!-- bcprov -->
<g id="node31" class="node"><title>bcprov</title>
<polygon fill="#deebf7" stroke="black" points="1766.75,-75 1766.75,-111 1827.75,-111 1827.75,-75 1766.75,-75"/>
<text text-anchor="middle" x="1797.25" y="-100.1" font-family="Arial" font-size="8.00">bcprov</text>
<polyline fill="none" stroke="black" points="1766.75,-93 1827.75,-93 "/>
<text text-anchor="middle" x="1797.25" y="-82.1" font-family="Arial" font-size="8.00">bcprov(1.46)</text>
</g>
<!-- org_apache_sshd_core&#45;&gt;bcprov -->
<g id="edge58" class="edge"><title>org_apache_sshd_core&#45;&gt;bcprov</title>
<path fill="none" stroke="#9ecae1" d="M1801.06,-148.937C1800.5,-140.807 1799.81,-130.876 1799.17,-121.705"/>
<polygon fill="#9ecae1" stroke="#9ecae1" points="1802.64,-121.174 1798.46,-111.441 1795.66,-121.659 1802.64,-121.174"/>
</g>
<!-- org_apache_jackrabbit_jackrabbit_api&#45;&gt;javax_jcr -->
<g id="edge59" class="edge"><title>org_apache_jackrabbit_jackrabbit_api&#45;&gt;javax_jcr</title>
<path fill="none" stroke="#9ecae1" d="M708.485,-185.081C725.496,-193.406 742.496,-205.328 752.246,-222 760.773,-236.579 760.129,-245.064 752.246,-260 745.445,-272.887 734.031,-283.282 721.963,-291.381"/>
<polygon fill="#9ecae1" stroke="#9ecae1" points="719.765,-288.625 713.116,-296.874 723.458,-294.572 719.765,-288.625"/>
</g>
<!-- org_apache_geronimo_specs_geronimo_jta_1_1_spec -->
<g id="node32" class="node"><title>org_apache_geronimo_specs_geronimo_jta_1_1_spec</title>
<polygon fill="#deebf7" stroke="black" points="545.246,-75 545.246,-111 767.246,-111 767.246,-75 545.246,-75"/>
<text text-anchor="middle" x="656.246" y="-100.1" font-family="Arial" font-size="8.00">geronimo&#45;jta_1.1_spec</text>
<polyline fill="none" stroke="black" points="545.246,-93 767.246,-93 "/>
<text text-anchor="middle" x="656.246" y="-82.1" font-family="Arial" font-size="8.00">org.apache.geronimo.specs.geronimo&#45;jta_1.1_spec(1.1.1)</text>
</g>
<!-- org_apache_jackrabbit_jackrabbit_api&#45;&gt;org_apache_geronimo_specs_geronimo_jta_1_1_spec -->
<g id="edge60" class="edge"><title>org_apache_jackrabbit_jackrabbit_api&#45;&gt;org_apache_geronimo_specs_geronimo_jta_1_1_spec</title>
<path fill="none" stroke="#9ecae1" d="M656.246,-148.937C656.246,-140.807 656.246,-130.876 656.246,-121.705"/>
<polygon fill="#9ecae1" stroke="#9ecae1" points="659.746,-121.441 656.246,-111.441 652.746,-121.441 659.746,-121.441"/>
</g>
<!-- org_apache_felix_metatype&#45;&gt;org_ops4j_pax_logging_pax_logging_api -->
<g id="edge61" class="edge"><title>org_apache_felix_metatype&#45;&gt;org_ops4j_pax_logging_pax_logging_api</title>
<path fill="none" stroke="#deebf7" d="M1130.99,-21.5419C1270.87,-25.503 1587.9,-38.3554 1620.25,-74 1653.7,-110.863 1645.78,-143.271 1620.25,-186 1586.47,-242.512 1518.22,-275.53 1463.43,-293.83"/>
<polygon fill="#deebf7" stroke="#deebf7" points="1462.15,-290.563 1453.71,-296.969 1464.3,-297.224 1462.15,-290.563"/>
</g>
<!-- org_apache_aries_proxy_api&#45;&gt;org_apache_aries_util -->
<g id="edge62" class="edge"><title>org_apache_aries_proxy_api&#45;&gt;org_apache_aries_util</title>
<path fill="none" stroke="#deebf7" d="M1448.71,-74.937C1491.41,-63.6332 1547.27,-48.8471 1590.28,-37.4625"/>
<polygon fill="#deebf7" stroke="#deebf7" points="1591.31,-40.8097 1600.08,-34.8673 1589.52,-34.0428 1591.31,-40.8097"/>
</g>
<!-- org_apache_aries_util&#45;&gt;org_ops4j_pax_logging_pax_logging_api -->
<g id="edge65" class="edge"><title>org_apache_aries_util&#45;&gt;org_ops4j_pax_logging_pax_logging_api</title>
<path fill="none" stroke="#bdbdbd" d="M1662.54,-37.2731C1677.07,-80.4792 1707.71,-194.458 1653.25,-260 1651.79,-261.755 1556.31,-280.503 1479.11,-295.422"/>
<polygon fill="#bdbdbd" stroke="#bdbdbd" points="1477.98,-292.074 1468.83,-297.406 1479.31,-298.947 1477.98,-292.074"/>
</g>
<!-- org_apache_mina_core&#45;&gt;org_ops4j_pax_logging_pax_logging_api -->
<g id="edge63" class="edge"><title>org_apache_mina_core&#45;&gt;org_ops4j_pax_logging_pax_logging_api</title>
<path fill="none" stroke="#deebf7" d="M1900.96,-111.128C1896.49,-130.842 1886.95,-163.401 1869.25,-186 1833.58,-231.513 1816.25,-239.33 1762.25,-260 1646.44,-304.329 1606,-277.703 1478.92,-296.001"/>
<polygon fill="#deebf7" stroke="#deebf7" points="1478.18,-292.574 1468.81,-297.525 1479.22,-299.495 1478.18,-292.574"/>
</g>
<!-- org_apache_servicemix_bundles_junit -->
<g id="node33" class="node"><title>org_apache_servicemix_bundles_junit</title>
<polygon fill="#bdbdbd" stroke="black" points="1730.75,-1 1730.75,-37 1903.75,-37 1903.75,-1 1730.75,-1"/>
<text text-anchor="middle" x="1817.25" y="-26.1" font-family="Arial" font-size="8.00">Apache ServiceMix :: Bundles :: junit</text>
<polyline fill="none" stroke="black" points="1730.75,-19 1903.75,-19 "/>
<text text-anchor="middle" x="1817.25" y="-8.1" font-family="Arial" font-size="8.00">org.apache.servicemix.bundles.junit(3.8.2.4)</text>
</g>
<!-- bcprov&#45;&gt;org_apache_servicemix_bundles_junit -->
<g id="edge64" class="edge"><title>bcprov&#45;&gt;org_apache_servicemix_bundles_junit</title>
<path fill="none" stroke="#deebf7" d="M1801.99,-74.937C1804.29,-66.6305 1807.12,-56.4435 1809.72,-47.1077"/>
<polygon fill="#deebf7" stroke="#deebf7" points="1813.1,-48.0126 1812.4,-37.4407 1806.35,-46.1391 1813.1,-48.0126"/>
</g>
</g>
</svg>
